<?xml version="1.0" encoding="utf-8"?>
<!-- Generator: Adobe Illustrator 24.0.1, SVG Export Plug-In . SVG Version: 6.00 Build 0)  -->
<svg version="1.1" id="Layer_1" xmlns="http://www.w3.org/2000/svg" xmlns:xlink="http://www.w3.org/1999/xlink" x="0px" y="0px"
	 viewBox="0 0 230 63" style="enable-background:new 0 0 230 63;" xml:space="preserve">
<style type="text/css">
	.st0{fill:#4A4A4A;}
	.st1{fill:#48AF4E;}
</style>
<g>
	<path class="st0" d="M92,28.6c-0.8-2.7-2-5-3.7-7c-1.7-1.9-3.7-3.5-6.2-4.5c-2.5-1.1-5.4-1.6-8.8-1.6c-3.4,0-7,0.4-9.6,1.5
		c-2.6,1.1-4.8,2.7-6.5,4.7c-1.8,2-3.1,4.5-4,7.3c-0.9,2.8-0.8,6.1-0.8,9.5c0,6.8,1.7,12.1,5.2,15.9c3.5,3.8,8.4,5.7,14.9,5.7
		c3.3,0,6.2-0.6,8.8-1.7c2.6-1.1,4.7-2.7,6.5-4.7c1.8-2,3.1-4.4,4-7.2c0.9-2.7,1.4-5.8,1.4-9.1C93.2,34.3,92.8,31.3,92,28.6z
		 M82.7,43.4c-0.4,1.7-1,3.3-1.8,4.6c-0.8,1.4-1.9,2.5-3.1,3.4s-2.8,1.3-4.5,1.3c-7.3,0-10.9-5.1-10.9-15.3c0-2,0.2-3.8,0.6-5.6
		c0.4-1.8,1.1-3.3,1.9-4.6c0.9-1.3,2-2.4,3.3-3.1s2.8-1.1,4.6-1.1c1.9,0,3.5,0.4,4.8,1.2c1.3,0.8,2.4,1.8,3.3,3.2
		c0.9,1.3,1.5,3,1.9,4.8c0.4,1.9,0.6,3.9,0.6,6.1C83.3,40,83.1,41.7,82.7,43.4z"/>
	<path class="st0" d="M142.7,33.8l0.2,25H133V16.6h8.4l1.3,6.8c0,0,4.3-6.8,10.9-6.8h3.9v8.1C142.7,23.3,142.7,33.8,142.7,33.8z"/>
	<path class="st0" d="M111.6,33.8l0.1,25h-9.9V16.6h8.4l1.3,6.8c0,0,4.3-6.8,10.9-6.8h3.9v8.1C111.5,23.3,111.6,33.8,111.6,33.8z"/>
	<path class="st0" d="M196.2,23.5c-0.6-1.9-1.6-3.4-3-4.7c-1.4-1.2-3.1-2.1-5.3-2.8c-2.2-0.6-4-0.6-7.1-0.6c-2.5,0-5.9,0.1-8.3,0.7
		c-3.3,0.8-5.5,1.4-7.6,2.3l2.8,7c1.7-0.7,3.7-1.7,5.7-2.1c1.9-0.4,4.6-0.9,6.8-0.9c3,0,4.9,1.1,6,2.3c1.2,1.1,1.7,2.1,1.7,5v3
		c-1.1-0.1-12.9,1.3-12.9,1.3c-15.7,2.5-13.2,14.6-13.2,14.6c0,3.6,1.8,6.1,4.2,8.3c2.4,2.2,5.9,2.8,10,2.8c3.1,0,5.6-0.6,7.6-1.7
		c2-1.1,3.6-2.9,5-4.5l1.8,5.2h6.7V29.7C197.1,27.1,196.8,25.4,196.2,23.5z M187.7,47.4c-4.2,6.3-10.1,5.7-10.1,5.7
		c-6.1-0.2-6.3-5.4-6.3-5.4c-0.2-9.9,16.4-8.7,16.4-8.7L187.7,47.4L187.7,47.4z"/>
	<path class="st0" d="M221.2,59.5c-13.5,0.6-12.8-14.3-12.8-16V0.7l9.9-0.4v45.9c0.2,5.1,4.1,6.3,7.1,6.2l4.7-0.5v6.8
		C229.1,59.2,222,59.5,221.2,59.5z"/>
	<circle class="st1" cx="2.5" cy="37.8" r="2.5"/>
	<g>
		<ellipse class="st1" cx="35.5" cy="38.7" rx="3.5" ry="3.5"/>
		<path class="st1" d="M25.5,35.4c-1,0-1.9,0.4-2.5,1.1v0c-0.8,0.8-2.5,0.6-2.5,0.6c-1.9,0-2.7-1-3-1.5c0-0.1-0.1-0.2-0.1-0.3v0l0,0
			c-0.9-1.7-2.6-2.8-4.6-2.8c-2.9,0-5.3,2.4-5.3,5.3c0,2.9,2.4,5.3,5.3,5.3c1.7,0,3.2-0.8,4.2-2v0c0,0,0.9-1.3,3.1-1.4
			c0,0,1.9-0.1,2.7,0.9c0,0,0.1,0.1,0.1,0.1c0,0,0,0.1,0.1,0.1v0c0.6,0.8,1.5,1.3,2.6,1.3c1.8,0,3.3-1.5,3.3-3.3
			C28.8,36.9,27.4,35.4,25.5,35.4z"/>
	</g>
	<path class="st0" d="M13.3,45.8c1.1,0.2,2.5,0,3.8-1.5c0,0,3.2-3.4,6,0.1l0.1,0c0.1,2.3,0.5,3.8,2,5.9c3,4.1,5.5,5,9.9,5
		c1.5,0,3.6-0.3,5.2-0.7c1.6-0.4,3.3-1.3,4.8-2l0.8,7.3c-1.6,0.7-3.2,1.7-5.3,2.2c-2.1,0.4-4.2,0.7-6.2,0.7
		c-7.1,0-12.5-2.1-16.3-6.3C15.8,53.7,14.2,50.1,13.3,45.8z"/>
	<path class="st0" d="M13.3,29.3c3.5,0.3,5.2,3.3,5.2,3.3c1,1.3,2.2,1.1,2.2,1.1c1.3,0,2.1-0.8,2.6-1.5c0.1-2.9,0.7-5.7,1.8-7.3
		c1.1-1.6,2.5-2.8,4.2-3.7c1.6-0.9,3.5-1.3,5.7-1.3c1.6,0,3.2,0.2,4.7,0.7c1.6,0.4,3.1,1.1,4.5,1.9l2.1-7.2c-1.7-0.9-3.6-1.6-5.5-2
		c-1.9-0.4-3.8-0.7-5.6-0.7c-3.4,0-6.8,0-9.6,1.2s-5.1,2.8-7.1,5c-2,2.2-3.5,4.9-4.6,8.2C13.7,27.7,13.5,28.4,13.3,29.3z"/>
</g>
</svg>
