<?xml version="1.0" encoding="utf-8"?>
<!-- Generator: Adobe Illustrator 24.0.1, SVG Export Plug-In . SVG Version: 6.00 Build 0)  -->
<svg version="1.1" id="Layer_1" xmlns="http://www.w3.org/2000/svg" xmlns:xlink="http://www.w3.org/1999/xlink" x="0px" y="0px"
	 viewBox="0 0 266.8 63" style="enable-background:new 0 0 266.8 63;" xml:space="preserve">
<style type="text/css">
	.st0{fill:#010101;}
	.st1{fill:#040404;}
	.st2{fill:#34B2E7;}
	.st3{enable-background:new    ;}
	.st4{clip-path:url(#SVGID_2_);}
	.st5{font-family:'TrebuchetMS-Bold';}
	.st6{font-size:9.6386px;}
	.st7{fill:none;}
</style>
<g>
	<path class="st0" d="M223.4,17h-4.8v7.7h4.6c3,0,4.8-0.1,5.6-0.3c0.7-0.2,1.3-0.7,1.7-1.3c0.4-0.6,0.6-1.4,0.6-2.3
		c0-1-0.3-1.9-0.8-2.5c-0.6-0.6-1.3-1-2.3-1.2C227.4,17.1,226,17,223.4,17 M236,15.6c0.9,1.4,1.3,3,1.3,4.8c0,2.3-0.7,4.2-2,5.7
		c-1.3,1.5-3.4,2.4-6.1,2.8c1.3,0.8,2.4,1.6,3.3,2.6c0.9,0.9,2,2.6,3.5,5l3.7,6h-7.3l-4.5-6.6c-1.6-2.4-2.7-3.9-3.2-4.5
		c-0.6-0.6-1.2-1-1.9-1.3c-0.7-0.2-1.7-0.3-3.1-0.3h-1.3v12.7h-6.2V12h12.9c3.3,0,5.6,0.3,7,0.8C233.9,13.2,235.1,14.2,236,15.6"/>
	<polygon class="st0" points="252.7,24 245.5,12 238.4,12 249.5,29.5 249.5,42.3 255.7,42.3 255.7,29.5 266.8,12 259.7,12 	"/>
	<path class="st1" d="M164.3,10.7c0.2,0,0.3,0,0.3-0.1h-1.3h0.4C163.9,10.7,164.1,10.7,164.3,10.7"/>
	<path class="st1" d="M160.2,10.7c0.1,0,0.4,0,1,0l-1.2-0.1l-0.8,0.1C159.7,10.7,160.1,10.7,160.2,10.7"/>
	<path class="st1" d="M155.2,10.6c-0.7,0-0.8,0-0.2,0.1c0.5,0,1,0,1.4,0c-0.3-0.1-1-0.1-2.2-0.1h-0.1l0,0h-0.4c0,0-0.1,0-0.3,0
		c0.1,0,0.1,0-0.1,0c-0.1,0-0.3,0.1-0.3,0.1h0.4c0.3,0,0.6,0,0.8,0s0.5-0.1,0.8-0.1C155,10.5,155.1,10.5,155.2,10.6"/>
	<path class="st1" d="M157.1,10.7c0.1,0,0.3,0,0.4,0h0.1H157.1h1.7h-0.6c-0.1,0-0.3,0-0.4,0H157.1z"/>
	<polygon class="st0" points="164.5,23.8 164.5,17 180.9,17 180.9,12 158.3,12 158.3,42.3 181.4,42.3 181.4,37.2 164.5,37.2 
		164.5,28.9 179.7,28.9 179.7,23.8 	"/>
	<polygon class="st0" points="184.4,12 184.4,17 193.5,17 193.5,42.3 199.6,42.3 199.6,17 208.5,17 208.5,12 	"/>
	<path class="st1" d="M55.5,4.5c0,0,0,0.1-0.1,0.2c0,0.1,0,0.2-0.1,0.2v2.4h0.1V5.7l-0.1-0.1c0-0.3,0.1-0.5,0.1-0.7v0.5
		C55.5,5.2,55.5,4.9,55.5,4.5"/>
	<path class="st1" d="M55.5,7.3L55.5,7.3l-0.1,2.8h0.1c0-0.2,0-0.3,0.1-0.4c0,0,0,0.1,0,0.2c0-0.5,0-0.7,0-0.7S55.5,9,55.5,8.6
		l0.1,0.1C55.5,8.2,55.5,7.8,55.5,7.3"/>
	<path class="st1" d="M91.1,10.3h-0.4c-0.9,0-1.4,0-1.6,0.1h5.4l0.6-0.1h-0.3c-0.3,0-0.5,0-0.8,0h-0.7c-0.3,0-0.4,0-0.2,0
		c-0.5,0-1,0-1.5,0C91.4,10.3,91.2,10.3,91.1,10.3"/>
	<path class="st1" d="M99,10.3h0.9c-0.1,0-0.2,0-0.4,0S99.1,10.3,99,10.3"/>
	<path class="st1" d="M99.8,10.3h-0.9h-3.2h-0.8h-0.7h0.2h-5.4H89h-0.2h-5.4c0,0-0.2,0.1-0.8,0h-0.3H82c-0.4,0-0.7,0-0.9,0
		c0,0,0.1-0.1,0.4-0.1h-5.1c-0.1,0-0.2,0-0.3,0c-0.2,0-0.3,0-0.2,0h-0.6h-0.7h0.1c0.1,0,0,0-0.4,0c-0.3,0-0.5,0-0.5,0h-2.2h-0.4
		c-0.9,0-1.4,0.1-1.6,0.1s-0.4,0-0.5,0s-0.1-0.1,0.1-0.1c-0.7,0-1.2,0-1.6,0H67h-0.9H65c0.2,0,0.3,0,0.4,0h-5.1h-0.2h-0.3h-0.6h-4.8
		c0,0-0.2,0-0.5,0c-0.4,0-0.7,0-0.7,0.1c0.3,0,0.6,0,0.9,0c0.2,0,0.4,0,0.5,0c-0.3,0-0.6,0.1-0.9,0c-0.3,0-0.5,0-0.6,0h0.4h0.5
		c0.1,0,0.1,0,0.2,0h5c0.3,0,0.7,0,1.2,0c0.7,0,1.3,0,1.8,0c0.5,0,1,0,1.5,0c1.1,0,2.2,0,3.3-0.1c0,0-0.1,0.1-0.3,0.1h4.8
		c0.2,0,0.4,0,0.8,0c0.1,0,0.3,0,0.5,0c-0.1,0-0.1,0-0.1,0h3.8c0.2,0,0.5,0,0.8,0h0.2c-0.1,0-0.2,0-0.2,0h4.8h-0.1h0.7
		c1.7,0,3.6-0.1,5.4-0.1c-0.3,0-0.6,0-0.8,0.1c-0.2,0-0.5,0.1-0.9,0.1c0.2,0,0.3,0,0.4,0h0.9c0.4,0,0.8,0,1.3,0h1.5
		c0.5,0,1.1,0,1.6,0s1.1,0,1.6,0c0,0,0,0-0.2,0h-0.4h0.9c0.2,0,0.3,0,0.5,0c0.5,0,1,0,1.4,0h0.1h1.2l0.8-0.1c0.5,0,1.1,0.1,1.5,0.1
		h0.1h2.4c0.1,0,0.2,0,0.2-0.1c0.1,0,0.3,0,0.9-0.1c0.4,0,0.5,0,0.2,0.1c-0.2,0-0.4,0-0.5,0h1.5c-0.1,0-0.3,0-0.4,0h2.1h-0.1
		c0.3,0,0.8,0,1.4,0h0.8h0.8h0.4c-0.2,0-0.4,0-0.7,0h2.2c0.5,0,0.8,0,1.1-0.1c0.4,0,0.8,0,1.1,0.1c0.2,0,0.3,0,0.2,0h1
		c0.1,0,0.2,0,0.2,0c0.1,0,0.3-0.1,0.9-0.1h0.4l-0.1,0.1h0.2h2.7h0.2c0.6,0,1.1,0,1.7,0c0.4,0,0.8,0,1.2,0l0.1-0.1h-0.6
		c-1.1,0-2.3,0-3.4,0h-3.5c-1.2,0-2.4,0-3.6,0c0.2,0,0.3,0,0.3,0h-0.8c-0.3,0-0.4,0-0.4,0h-0.1c-0.5,0-1,0-1.4-0.1h-0.2h-2.8
		c-0.1,0,0,0,0,0h-0.5h-0.3c-0.1,0-0.1,0-0.1,0c-0.1,0-0.2,0-0.4,0.1c-0.7,0-0.8-0.1-0.2-0.1h-0.6h-0.6L99.8,10.3L99.8,10.3z"/>
	<path class="st1" d="M106.2,10.3h-0.3h-0.3c-0.3,0-0.4,0-0.5,0h2.8c-0.3,0-0.7,0-0.9,0C106.7,10.3,106.4,10.3,106.2,10.3"/>
	<path class="st1" d="M55.5,10.1L55.5,10.1L55.5,10.1L55.5,10.1l-0.2,0.1C55.3,10.2,55.3,10.2,55.5,10.1l-2.1,0.1
		c-0.1,0-0.3,0-0.5,0.1c-0.2,0-0.3,0-0.3,0.1h0.1c0.2,0,0.5-0.1,0.9-0.1c0.2,0,0.5,0,0.9,0l0,0h4.8c-0.2,0,0-0.1,0.5-0.1
		c-0.7,0-1.2,0-1.7,0C57.1,10.2,56.3,10.2,55.5,10.1C55.5,10.2,55.5,10.2,55.5,10.1"/>
	<path class="st1" d="M63.6,10.3h-1.5h-1.2l-0.5,0.1h5.1c0.1,0,0.2,0,0.5,0h0.5c-0.3,0-0.8,0-1.4,0C64.6,10.3,64.1,10.3,63.6,10.3"
		/>
	<path class="st1" d="M81.1,10.3h-1.5h-1.4c-0.7,0-1.2,0-1.6,0.1h5.1c0.1,0,0.2,0,0.3,0c0.5,0,0.9,0,1,0
		C82.3,10.3,81.7,10.3,81.1,10.3"/>
	<path class="st1" d="M86.9,10.3c-1.2,0-2.4,0-3.6,0l0,0h5.4C88.3,10.3,87.7,10.3,86.9,10.3"/>
	<path class="st1" d="M74.7,10.3h0.7C75.2,10.3,75,10.3,74.7,10.3L74.7,10.3"/>
	<path class="st1" d="M71.7,10.3h2.2c0,0-0.1-0.1-0.2-0.1C73.1,10.3,72.4,10.3,71.7,10.3"/>
	<path class="st1" d="M52.6,10.3L52.6,10.3L52.6,10.3L52.6,10.3"/>
	<path class="st1" d="M104.3,10.3h0.3H104.3C104.4,10.3,104.3,10.3,104.3,10.3"/>
	<path class="st1" d="M87,10.5c0.1,0,0.2,0,0.3,0h-0.9c0.2,0,0.3,0,0.2,0c-0.1,0-0.1,0.1,0.1,0.1h0.6c0.4,0,0.6,0,0.6-0.1
		c0,0,0.1-0.1,0.2-0.1L87,10.5z"/>
	<path class="st1" d="M92.7,10.5c0.3,0,0.5,0,0.7,0c0.1,0,0.3,0,0.4,0h-0.9H92.7z"/>
	<path class="st1" d="M96.5,10.5h0.4h-1.2c0.3,0,0.3,0,0.1,0.1h0.3c0.2,0,0.2,0,0.1,0s-0.1,0,0.1,0L96.5,10.5L96.5,10.5z"/>
	<path class="st1" d="M99.3,10.5c0.4,0,0.8,0.1,1,0.1c0.7,0,1.2,0,1.3-0.1c0.1,0,0.1,0,0.1,0H99.3z"/>
	<path class="st1" d="M103.6,10.5c-0.2,0-0.4,0-0.7,0c-0.4,0-0.6,0-0.6,0.1c0.6-0.1,1.1-0.1,1.5-0.1s1.1,0,1.9,0l0,0H103.6z"/>
	<path class="st1" d="M108.2,10.5h-0.3c-0.4,0-0.8,0-1.2,0h1.1c0.7,0,1.3,0,2.1,0h0.5H108.2z"/>
	<path class="st1" d="M112.9,10.5c0,0-0.1,0-0.3,0H112.9c0.4,0,0.8,0,1,0H112.9z"/>
	<polygon class="st1" points="115.5,10.5 116.7,10.5 118.2,10.5 	"/>
	<path class="st1" d="M54.3,10.5C54.4,10.5,54.4,10.5,54.3,10.5C54.2,10.6,54.3,10.6,54.3,10.5l0.2,0.1c0.2,0,0.5-0.1,0.9-0.1h0.1
		v0.3l0,0l0,0c0-0.1,0-0.2,0-0.3c0.4,0,0.8,0,1.2,0.1c0.5,0,0.9,0,1.2,0H58h-0.3l1.4,0.1h0.1c0.5,0.1,1.3,0.1,2.3,0.1h0.4
		c0.3,0,1-0.1,2-0.1c1,0,1.7,0,2.1,0c-0.2,0-0.5,0-0.7,0s-0.5,0-0.8,0l0.1-0.1c0.4,0,0.5,0,0.5,0s0,0,0.1,0s0.2,0,0.4,0
		c-0.1,0-0.2-0.1-0.5-0.1c-0.2,0-0.5,0-0.8,0c-0.3,0-0.6,0-0.8,0h0c0.3,0,0.7-0.1,1.1-0.1c-0.7,0-1.3,0-1.9,0c-0.8,0-1.5,0-2.1,0.1
		c-0.3,0-0.3-0.1-0.1-0.1c-0.2,0-0.3,0-0.4,0c-0.2,0-0.3,0-0.4,0c-0.1,0-0.2,0-0.3,0s-0.3,0-0.5,0c0.1,0,0.1,0,0.2,0L54.3,10.5
		L54.3,10.5z"/>
	<polygon class="st1" points="53.6,10.5 53.2,10.5 53.2,10.5 	"/>
	<path class="st1" d="M66.6,10.5L66.6,10.5C66.3,10.5,66.3,10.5,66.6,10.5c0.2,0.1,0.5,0.1,0.7,0.1c0.4,0,0.7,0,0.9-0.1
		c0.2,0,0.4,0,0.8,0s0.7,0,0.7,0.1c0,0,0.4,0.1,1.2,0.1h-1c0.3,0,0.5,0,0.6,0c0.2,0,0.3,0,0.5,0c0.1,0,0.3,0,0.5,0h0
		c-0.1,0-0.2,0-0.3,0s-0.3,0-0.7,0h-0.1c0,0,0.1,0,0.3-0.1h0.6H71c0.1,0,0.2-0.1,0.3-0.1H66.6L66.6,10.5z"/>
	<path class="st1" d="M72.4,10.5h0.4c0.4,0,0.7,0,0.9,0.1h-0.3c0.9,0,1.6,0,2.2,0h-0.1c0.2,0,0.4,0,0.7-0.1H72.4z"/>
	<path class="st1" d="M77,10.5c-0.1,0-0.1,0-0.2,0C76.6,10.5,76.6,10.5,77,10.5L77,10.5c-0.1,0.1-0.5,0.1-1.1,0.1h-0.7
		c0.3,0,0.5,0,0.5,0.1c0.1,0-0.1,0-0.6,0c0.1,0,0.2,0,0.3,0c0.1,0,0.3,0,0.5,0h0.5h0.2c0,0,0,0,0.1,0s0.2,0,0.5,0s0.7,0,1,0
		s0.6,0,0.6-0.1l-1,0.1c0,0,0.1-0.1,0.4-0.1s0.4,0,0.5-0.1c0.1,0,0.4,0,0.7,0c0.3,0,0.6,0,1,0h1c0.3,0,0.5,0,0.6,0h-0.2H77L77,10.5z
		"/>
	<path class="st1" d="M55.5,10.8L55.5,10.8L55.5,10.8l-0.1,0.3h0.1C55.5,11,55.5,10.9,55.5,10.8"/>
	<polygon class="st1" points="55.4,10.8 55.4,10.8 55.4,10.9 	"/>
	<path class="st1" d="M55.5,11.1L55.5,11.1c-0.1,0.1-0.1,0.2-0.1,0.3l0,0v-0.1c0,0.3,0,0.5,0,0.7h0.1v-0.4c0,0.1,0,0.3,0,0.4h0.1
		c0-0.1,0-0.3,0-0.5C55.5,11.4,55.5,11.2,55.5,11.1"/>
	<path class="st1" d="M55.6,12L55.6,12c0,0.2,0,0.4,0,0.6C55.6,12.5,55.6,12.3,55.6,12"/>
	<path class="st1" d="M55.5,12L55.5,12c-0.1,0.2-0.1,0.4-0.1,0.6c0,0.1,0,0.2,0,0.3h0.1c0-0.1,0-0.3,0-0.5V12z"/>
	<path class="st1" d="M55.5,12.9L55.5,12.9L55.5,12.9c-0.1,0.3-0.1,0.4-0.1,0.5c0,0,0,0,0-0.1l-0.1,0.3c0.1,0,0.1,0.1,0.1,0.3
		s0,0.3,0,0.3s0-0.1,0-0.2c-0.1,1.4-0.1,2.9,0,4.4l-0.1-0.3c0,0.2,0,0.4,0,0.6s0,0.3,0,0.4c0,0,0,0,0-0.1v1.2c0,0.4,0,0.7,0.1,0.7
		c0,0.1,0,0.2-0.1,0.3h0.2c0-0.2,0-0.5,0-0.8c0-0.5,0-1.1,0-1.6l0,0v0.4c0-0.3,0-0.6,0-0.7c0-0.5,0-0.8,0.1-0.9c0,0,0,0,0,0.1
		c0-0.2,0-0.2,0-0.2l0,0c0,0,0,0-0.1,0.1c0,0,0,0,0-0.1v-0.1l-0.1-0.6c0-0.5,0-0.9,0.1-1.2c0-0.5,0-0.7-0.1-0.7c0,0-0.1-0.1-0.1-0.5
		c0-0.1,0-0.2,0.1-0.2c0,0.1,0,0.2,0.1,0.3v-0.7c0,0.1,0.1,0.3,0.1,0.5c0,0.2,0.1,0.3,0.1,0.3c0-0.3-0.1-0.5-0.1-0.7
		S55.6,13.4,55.5,12.9v0.2C55.5,13.1,55.5,13,55.5,12.9"/>
	<path class="st1" d="M55.5,21.3h-0.2c0,0.2,0,0.4,0,0.8c0,0.5,0,1,0.1,1.5l0,0c0,0,0,0.2,0,0.4c0,0.3,0,0.5,0,0.6l0,0
		c0,0-0.1-0.2-0.1-0.4c0-0.2,0-0.4-0.1-0.4c0.1,0.5,0.1,1.1,0,1.8c0,0.6,0,1.1,0.1,1.4V27l0,0c0,0.2,0,0.4,0,0.6l0,0l0,0l0,0
		c0,0,0,0,0,0.2s0,0.2,0,0.2s0,0-0.1,0.1c0,0.4,0.1,0.8,0.1,1.2c0,0.2,0,0.3,0,0.4h0.3c0-0.1,0-0.2-0.1-0.4v0.1
		c-0.1-0.1-0.1-0.3-0.1-0.8c0,0.1,0,0.1,0,0.1s0-0.1,0-0.3c0-0.2,0-0.3,0-0.3v0.1c0-0.4,0-0.7,0-1l0,0c-0.1-0.2-0.1-0.5-0.1-0.8
		c0,0.1,0.1,0.2,0.1,0.2v-0.2c0,0.1,0.1,0.4,0.1,0.9c0-0.2,0-0.3,0-0.3s0.1,0.1,0.1,0.3c0-0.2,0-0.4,0-0.7l0,0l0,0
		c0-0.1,0.1-0.3,0-0.5c0-0.3-0.1-0.4-0.1-0.5v0.5c0,0,0-0.1-0.1-0.2c0-0.1,0-0.2-0.1-0.2l0,0c0-0.2,0.1-0.4,0-0.7c0-0.3,0-0.6,0-0.8
		v0.1c0-0.9-0.1-1.9-0.1-2.9c0.1,0.2,0.1,0.4,0.1,0.8c0-0.2,0-0.3,0.1-0.3l0,0l0,0c0,0,0,0,0-0.1C55.4,21.6,55.4,21.4,55.5,21.3
		C55.6,21.4,55.5,21.4,55.5,21.3v0.5C55.5,21.7,55.5,21.5,55.5,21.3"/>
	<path class="st1" d="M55.7,29.5c0-0.1-0.1-0.2-0.1-0.3c0,0,0,0.2,0,0.5L55.7,29.5L55.7,29.5L55.7,29.5
		C55.7,29.6,55.7,29.6,55.7,29.5"/>
	<path class="st1" d="M55.7,29.7L55.7,29.7V30C55.7,29.9,55.7,29.8,55.7,29.7"/>
	<path class="st1" d="M55.6,29.7L55.6,29.7L55.6,29.7L55.6,29.7L55.6,29.7h-0.2c0,0.1,0,0.2,0.1,0.3c0,0.2-0.1,0.2-0.1,0.3v-0.1
		c0,0.5,0,0.8,0,1.1v1c0-0.1,0-0.2,0-0.2c0-0.1,0-0.2,0-0.4c0,0.2-0.1,0.6,0,1.1c0,0.5,0,1,0,1.4l0.1,0.3c0,0.3,0,0.5,0,0.5
		s-0.1-0.1-0.1-0.2c0,0.8,0,1.5,0,2.1l0,0v-0.1v0.9c0,0.2,0,0.3,0.1,0.4c-0.1-0.1-0.1-0.4-0.1-0.9l0,0c0,0,0,0.1,0,0.3
		s0,0.3,0.1,0.3c0-0.3,0-0.5,0-0.7c0,0.3,0,0.5,0.1,0.7v-0.4c0-0.1,0-0.1,0-0.1l0,0l0,0v-0.1c-0.1-0.2-0.1-0.5,0-0.9
		c0-0.3,0.1-0.6,0.1-0.9v0.2v-0.7l0,0c0.1-0.3,0.1-0.7,0.1-1.3c0-0.2-0.1-0.5-0.1-1c0-0.5,0-0.8,0-1c0,0.2,0,0.4,0,0.7l-0.1,0.1
		c0-0.2,0-0.3,0-0.2c0,0,0-0.1,0-0.2c0,0-0.1,0.1,0,0.4c0,0.2,0,0.4,0,0.6c0-0.1,0-0.3-0.1-0.5c0,0.7,0,1.4,0.1,1.9
		c0,0.1,0,0.1-0.1,0.1v-0.1c0,0.2,0,0.3,0,0.4c0,0.1,0,0.2,0,0.4c0-0.1,0-0.3,0-0.7c0-0.3,0-0.6-0.1-0.9c0.1-0.7,0.1-1.5,0-2.3
		l0.1,0.1c0,0.1,0.1,0.1,0.1,0.2c0,0,0,0,0-0.1c0-0.3,0-0.5,0-0.7c0-0.1-0.1-0.3-0.1-0.4c0-0.2,0.1-0.3,0.1-0.3
		C55.6,30,55.6,29.9,55.6,29.7"/>
	<path class="st1" d="M110.7,10.3c-0.4,0-0.5,0-0.3,0.1L110.7,10.3z"/>
	<path class="st1" d="M110.4,10.4L110.4,10.4L110.4,10.4z"/>
	<path class="st1" d="M121.9,10.5c0.2,0,0.3,0.1,0.4,0c0.2,0,0.3,0,0.5,0h0.6h0.4c0,0-0.2,0-0.4-0.1c-0.3,0-0.4,0-0.4-0.1h-1.6
		c0.2,0,0.5,0,0.8,0.1c0.3,0,0.5,0,0.7,0.1H121.9z"/>
	<path class="st1" d="M97.6,10.5c-0.3,0-0.4,0-0.3,0s0,0-0.3,0.1h0.4c0.3,0,0.5,0,0.5-0.1H97.6z"/>
	<polygon class="st0" points="96.7,12 87.6,12 87.6,42.3 93.3,42.3 93.3,18.4 99.3,42.3 105.2,42.3 111.2,18.4 111.2,42.3 
		116.9,42.3 116.9,12 107.6,12 102.3,32.6 	"/>
	<path class="st1" d="M136.9,10.6L136.9,10.6h-1h0.8h0.8c0.1,0,0.5-0.1,1-0.1h0.1c0.6,0,1.2,0,1.8-0.1c-0.4,0-0.8,0-1.1,0
		c-0.5,0-1,0-1.4,0s-0.8,0-1.1,0c-0.4,0-0.8,0-1.4,0.1h2.1C137.6,10.6,137.4,10.6,136.9,10.6C137,10.6,136.9,10.6,136.9,10.6"/>
	<polygon class="st1" points="134.2,10.6 133.8,10.6 134.1,10.6 	"/>
	<path class="st1" d="M133.8,10.5l-0.7-0.1c-0.6,0-1.1,0-1.7,0h-1.2h0.2c-0.3,0-0.6-0.1-0.9-0.1c-0.4,0-0.8,0-1.2,0.1h-1.2
		c-0.2,0-0.4,0-0.5,0c0.1,0,0.2,0,0.3,0h-1.2h-0.1c0,0-0.2,0.1-0.6,0.1s-0.8,0-1.1,0c0.2,0,0.4,0,0.5,0c0.2,0,0.3,0,0.3,0
		c0.1,0,0.2,0,0.3,0c0.1,0,0.3,0,0.5,0c-0.2,0-0.5,0.1-0.7,0.1c0.6-0.1,1.1-0.1,1.3-0.1h0.2c0.3,0,0.4,0,0.4,0l0,0
		c0.4,0,0.7,0,0.9-0.1c0.2,0,0.5-0.1,1-0.1h0.4c0.3,0,0.4,0.1,0.3,0.1c-0.1,0-0.1,0,0,0h0.7c-0.2,0-0.2,0,0.1,0c0.2,0,0.4,0,0.6,0
		h0.8c0.3,0,0.5,0,0.7,0C133.2,10.5,133.7,10.5,133.8,10.5c0.3,0,0.6,0,1.2-0.1L133.8,10.5z"/>
	<path class="st1" d="M124,10.7C124.3,10.7,124.3,10.7,124,10.7h-0.3H124L124,10.7z"/>
	<polygon class="st1" points="122.9,10.6 122.3,10.6 121.8,10.6 	"/>
	<path class="st1" d="M123.5,10.3c-0.3,0-0.4,0-0.4,0h1H123.5z"/>
	<polygon class="st0" points="132,12 122.9,12 122.9,42.3 128.6,42.3 128.6,18.4 134.6,42.3 140.5,42.3 146.5,18.4 146.5,42.3 
		152.2,42.3 152.2,12 143.1,12 137.6,32.6 	"/>
	<path class="st1" d="M150.5,10.6c0.2,0,0.5,0,0.7,0.1c0.2,0,0.3,0,0.5,0c-1.1,0-1.7,0-2-0.1c-0.3,0-0.8,0-1.7,0h0.3h0.3h-1.3
		c-0.2,0-0.4,0.1-0.8,0.1s-0.3,0,0.3,0l1-0.1c0.1,0,0.4,0,0.9,0.1c0.5,0,0.7,0,0.7,0.1c0.3,0,0.5,0,0.6,0
		C150.1,10.6,150.3,10.6,150.5,10.6"/>
	<path class="st1" d="M143.2,10.6c-0.3,0-0.7-0.1-1.2-0.1c-0.2,0-0.4,0-0.6,0.1c0.1,0,0.1,0,0.1,0h0.7c0.1,0,0.2,0.1,0.4,0.1
		C142.8,10.6,143,10.6,143.2,10.6"/>
	<path class="st1" d="M143.7,10.5h0.4c0.6,0,0.9,0,0.7,0.1c1.2,0,1.6-0.1,1.1-0.1H143.7z"/>
	<polygon class="st1" points="139.7,10.6 140,10.6 138.9,10.6 	"/>
	<path class="st1" d="M22.8,2.9L22.8,2.9c0,0.3,0,0.5,0,0.5s0,0,0-0.1l-0.1,0.3c0.1,0.2,0.1,0.3,0.1,0.5c0,0.2,0,0.3,0,0.3
		s0-0.1-0.1-0.2c0,1,0,2.1,0,3.2h0.2l-0.1-0.3c0-0.5,0.1-1,0.2-1.3c0-0.5-0.1-0.7-0.1-0.7c-0.1,0-0.1-0.1-0.1-0.5c0-0.1,0-0.2,0-0.2
		c0,0.1,0,0.2,0.1,0.3V4c0,0.2,0,0.3,0.1,0.5c0,0.2,0,0.3,0.1,0.3l0,0C23,4.5,23,4.3,23,4c0-0.2,0-0.5,0-0.9v0.1c0-0.1,0-0.1,0-0.3
		L22.8,2.9L22.8,2.9z"/>
	<path class="st1" d="M23,7.9C23,7.9,23,7.9,23,7.9V7.7l-0.1-0.3h-0.1c0,0.5,0,1,0,1.4l-0.1-0.4c0,0.2,0,0.4,0,0.6s0,0.4,0,0.4
		s0,0,0-0.1v0.2h0.2c0-0.1,0-0.2,0-0.3l0,0c0,0.1,0,0.2,0,0.3c0-0.2,0-0.3,0-0.4c0-0.1,0-0.2-0.1-0.3C22.9,8.3,22.9,8,23,7.9L23,7.9
		L23,7.9C23,7.8,23,7.8,23,7.9L23,7.9"/>
	<path class="st1" d="M22.9,9.6L22.9,9.6L22.9,9.6z"/>
	<path class="st1" d="M22.9,9.6h-0.2c0,0.2,0,0.4,0,0.5h0.2C22.9,9.9,22.9,9.7,22.9,9.6"/>
	<path class="st1" d="M26.4,10.3c0.7,0,0.8,0.1,0.5,0.1c-0.3,0-0.8,0-1.3,0c-0.1,0-0.3,0-0.4,0h10.4c0.2,0,0.5,0,0.7-0.1h0.4
		c0.3,0,0.5,0,0.6,0.1c0.7,0,1.1-0.1,1.1-0.1s0,0-0.1,0s0.2-0.1,0.8-0.1h0.4c0.4,0,0.5,0,0.2,0.1c-0.2,0-0.4,0-0.5,0
		c-0.2,0,0.1,0,0.7,0l1.4-0.1c-1.2,0-2.4,0-3.4,0.1c-2.1,0-3.8,0.1-5.4,0.1c-2.6,0-4,0-4.1-0.1h-5.7c0-0.1,0-0.1,0-0.1h-0.2v0.1H4.3
		c-1.2,0-2.2,0-2.8,0.1c-0.4,0-0.8,0-1.2,0.1h21.3c0.2,0,0.5-0.1,0.9-0.1v0.1h0.2v-0.1c0.2,0,0.3,0,0.5,0h-0.1c0.7,0,1.2,0,1.6,0
		C25.3,10.3,25.8,10.3,26.4,10.3"/>
	<path class="st1" d="M41,10.3c-0.4,0-0.5,0.1-0.2,0.1c-0.1,0-0.1,0-0.2,0L41,10.3c0.5,0,1.1,0,2,0l0.2-0.1h-0.6
		C42,10.2,41.5,10.2,41,10.3"/>
	<path class="st1" d="M45.9,10.2L45.9,10.2C45.8,10.2,45.8,10.2,45.9,10.2c-0.4,0-0.9,0.1-1.5,0.1h0.5c-0.4,0-0.9,0.1-1.4,0.1h8.7
		c0.1,0,0.2-0.1,0.2-0.1h-2.6c0.1,0,0.3-0.1,0.9-0.1c0.5,0,0.9,0,1.2,0s0.2-0.1-0.3-0.1s-0.8,0-0.7-0.1c-0.2,0-0.5,0-0.9,0
		s-0.8,0-1.1,0h-0.1c-0.2,0-0.4,0-0.6,0c-0.4,0-0.8,0-1.1,0C46.8,10.2,46.4,10.2,45.9,10.2"/>
	<path class="st1" d="M25.2,10.4c-0.2,0-0.3,0-0.2,0.1h0.7c-0.3,0.1-0.8,0.1-1.5,0.2c0.6,0,1.1-0.1,1.6,0h1.1c0.4,0,0.8,0,1.2,0
		s0.9,0,1.5,0c-0.2,0-0.7,0.1-1.4,0.1h-0.8H29h0.1h0.2c0.4,0,0.5,0,0.3,0h1.5c0.1,0,0.1-0.1,0.2-0.1c0,0,0.5-0.1,1.3-0.1
		c0.1,0,0.2,0.1,0.4,0.1c0.2,0,0.4,0,0.7,0h0.8h0.3c-0.4,0-0.6,0-0.7,0.1c0,0,0,0,0.1,0.1c0.3,0,0.6-0.1,0.8-0.1c0.2,0,0.5,0,0.8,0
		s0.7,0,1.2,0.1c0.2,0,0.3,0,0.5,0c0,0-0.2,0-0.5,0.1c-0.1,0-0.2,0-0.3,0h1h0.7c0.7,0,1-0.1,1.2-0.1h0.1h2c0.6,0,1.1,0,1.6,0h0.7
		c-0.6,0-0.8,0-0.8,0.1l0,0h0.5c0.6,0,1.3-0.1,2-0.1c1.3-0.1,2.4-0.1,3.5-0.2c0.3,0.1,0.3,0.1,0.1,0.2c0.4,0,0.7,0,0.9,0
		c0.3,0,0.5,0,0.6-0.1c0.1,0,0.3,0,0.9,0H52h-1c0.5,0,0.8-0.1,1-0.1c0.1,0,0.1,0,0.2,0h-8.7h-0.4c-0.6,0-0.6,0.1,0.1,0.1h-2.6
		c0.1-0.1,0.2-0.1,0.4-0.1h-0.5c-0.4,0.1-1,0.1-1.7,0.1c-0.4,0-0.9,0-1.4,0H36c-0.4,0-0.9,0-1.2,0c0,0,0.1-0.1,0.4-0.1h0.2
		L25.2,10.4L25.2,10.4z"/>
	<path class="st1" d="M21.8,10.4L21.8,10.4H0.5c-0.2,0-0.3,0-0.5,0c0.3,0,0.6,0,1,0s0.7,0,0.7,0c0.3,0,1.1-0.1,2.2-0.1h0.3
		c0,0-0.2,0-0.7,0H3.3l0,0l0,0h0.2c-0.1,0-0.4,0.1-0.8,0.1c0.7,0.1,1.5,0.1,2.4,0.1c1.3,0,2.3,0,3-0.1c0.5,0,0.5,0,0,0.1
		c-0.5,0-1,0-1.4,0.1c0.3,0,0.6,0,0.9,0h2.6h1.7h6.2c0.1-0.1,0.4-0.1,1-0.1l0.3,0.1c0,0,0,0,0.1-0.1c0,0-0.1,0-0.3-0.1h0.7
		C20.7,10.5,21.3,10.5,21.8,10.4"/>
	<path class="st1" d="M22.7,10.7L22.7,10.7h0.2c0-0.1,0-0.2,0-0.2h-0.2C22.7,10.5,22.7,10.6,22.7,10.7"/>
	<path class="st1" d="M22.9,10.7h-0.2h-0.9h0.5c0.1,0,0.2,0,0.2,0c0.1,0,0.2,0,0.2,0c0,0.4,0,0.7,0.1,0.7c0,0.1,0,0.2,0,0.3h0.1
		c0-0.2,0-0.5,0-0.8C22.9,10.9,22.9,10.8,22.9,10.7"/>
	<polygon class="st1" points="18,10.7 18,10.7 11.7,10.7 12.2,10.7 	"/>
	<path class="st1" d="M43.2,10.7c-0.1,0-0.2,0.1-0.5,0.1c0.3,0,0.6-0.1,1-0.1H43.2z"/>
	<path class="st1" d="M37.7,10.7h-1c-0.1,0-0.2,0-0.2,0.1C36.9,10.7,37.3,10.7,37.7,10.7"/>
	<path class="st1" d="M31.1,10.7L31.1,10.7h-1.4h-0.1c-0.2,0-0.3,0.1-0.2,0.1C30.4,10.7,31,10.7,31.1,10.7"/>
	<path class="st1" d="M28.4,10.7c0.3,0,0.5,0,0.6,0.1l0.1-0.1h-1.6c-0.3,0-0.6,0-0.8,0h0.1h0.8C27.9,10.7,28.1,10.7,28.4,10.7"/>
	<path class="st1" d="M23,12.4c0-0.2-0.1-0.3-0.1-0.6h-0.1c0,0.2-0.1,0.5,0,0.8c0,0.5,0,1,0,1.6l0,0c0,0,0.1,0.2,0,0.4
		c0,0.3,0,0.5,0,0.7l0,0c-0.1,0-0.1-0.2-0.1-0.4c0-0.2-0.1-0.4-0.1-0.4c0.1,0.5,0.1,1.2,0.1,1.9c0,0.7,0,1.2,0.1,1.4v0.1l0,0
		c0,0.2,0,0.4,0,0.7l0,0c0,0,0,0,0-0.1l0,0c0,0,0,0.1,0,0.2c0,0.2,0,0.2-0.1,0.2c0,0,0,0-0.1,0.1c0,0.4,0.1,0.8,0.1,1.2
		c0,0.2,0,0.3,0,0.4h0.2c0-0.1,0-0.2-0.1-0.4v0.1c0.1-0.1,0-0.4,0-0.8c0,0.1,0,0.1,0,0.1s0-0.1,0.1-0.3v-0.3V19c0-0.4,0-0.8,0-1.1
		l0,0c0-0.2-0.1-0.4-0.1-0.8c0,0.1,0.1,0.2,0.1,0.3v-0.2c0,0.1,0.1,0.4,0.1,0.9c0-0.2,0-0.2,0.1-0.3c0,0,0,0.1,0,0.3
		c0-0.2,0-0.4,0-0.8l0,0l0,0l0,0c0-0.1,0.1-0.2,0-0.5c0-0.3-0.1-0.4-0.1-0.5l0.1,0.5c0,0-0.1-0.1-0.1-0.2s0-0.2,0-0.2
		c0-0.2,0-0.5,0-0.8c0-0.3,0-0.6,0-0.8L22.9,15c0-1-0.1-2-0.1-3c0.1,0.2,0.1,0.5,0.1,0.8c0-0.2,0-0.3,0.1-0.3l0,0c0,0,0,0,0.1,0
		C23,12.5,23,12.5,23,12.4c0.1-0.3,0.1-0.4,0-0.4l-0.1-0.1L23,12.4z"/>
	<path class="st1" d="M23.1,20.3c0-0.1,0-0.2,0-0.4C23.1,19.9,23,20.1,23.1,20.3L23.1,20.3L23.1,20.3L23.1,20.3L23.1,20.3
		C23.2,20.4,23.2,20.4,23.1,20.3"/>
	<path class="st1" d="M23.2,20.5L23.2,20.5l-0.1,0.3C23.1,20.7,23.2,20.5,23.2,20.5"/>
	<path class="st1" d="M23.1,20.5L23.1,20.5C23,20.5,23,20.5,23.1,20.5h-0.3c0,0.2,0,0.3,0.1,0.3c0,0.2,0,0.3-0.1,0.3c0,0,0,0,0-0.1
		c0,0.5,0.1,0.9,0,1.1c0,0.2,0,0.5,0,1c0-0.1,0-0.2-0.1-0.2c0-0.1,0-0.2,0-0.4c0,0.2-0.1,0.6,0,1.2c0,0.5,0,1,0,1.5l0.1,0.4
		c0,0.3,0,0.5,0,0.5s0-0.1,0-0.2c0,0.8,0,1.6,0,2.2l0,0v-0.1v1c0,0.2,0.1,0.3,0.1,0.4l0,0c-0.1-0.1-0.1-0.4,0-0.9l0,0
		c0,0,0.1,0.1,0.1,0.3c0,0.2,0,0.2,0,0.3c0-0.3,0-0.6,0-0.7c0,0.3,0,0.6,0.1,0.8v-0.5c0-0.1,0-0.1,0.1-0.1l0,0l0,0c0,0,0,0,0-0.1
		c-0.1-0.2-0.1-0.5,0-0.9c0-0.4,0.1-0.7,0.1-0.9v0.2v-0.7l0,0c0.1-0.3,0.1-0.7,0.1-1.3c0-0.2-0.1-0.5-0.1-1c0-0.5,0-0.9,0-1
		c0,0.2,0,0.4,0,0.7l-0.1-0.1c0-0.2,0-0.3,0-0.3s0-0.1,0-0.3c-0.1,0.1-0.1,0.2-0.1,0.4c0,0.2,0.1,0.5,0.1,0.7c0-0.1-0.1-0.3-0.1-0.5
		c0,0.8,0,1.4,0.1,2c0,0.1,0,0.1,0,0.1s-0.1,0-0.1-0.1c0,0.2,0,0.3,0,0.4c0,0,0,0.2,0,0.4C23,26.1,23,25.9,23,25.5
		c0-0.3,0-0.6-0.1-0.9c0.1-0.7,0.1-1.5,0-2.3l0.1,0.1c0,0.1,0.1,0.1,0.1,0.2c0,0,0,0,0-0.1c0-0.3,0-0.6,0-0.7S23,21.6,23,21.4
		c0-0.2,0.1-0.3,0.1-0.3s0-0.1,0-0.4l0,0C23.1,20.5,23.1,20.5,23.1,20.5"/>
	<path class="st1" d="M23,10.7L23,10.7L23,10.7z"/>
	<path class="st1" d="M23,7.3L23,7.3C23,7.3,23,7.3,23,7.3C23.1,7.1,23.1,7,23,7C22.9,7.3,22.9,7.4,23,7.3"/>
	<path class="st1" d="M33.4,10.2h-0.2c-0.4,0-0.7,0-1.1-0.1c0.1,0,0.4,0.1,0.8,0.1H33.4z"/>
	<polygon class="st1" points="32.6,10.6 31.8,10.6 32.1,10.7 	"/>
	<path class="st2" d="M33.3,12.2c-1.6,0.7-2.9,1.7-3.8,3.1s-1.3,2.8-1.3,4.4c0,2.4,0.9,4.5,2.8,6.2c1.3,1.2,3.7,2.2,6.9,3
		c2.6,0.6,4.2,1.1,5,1.3c1,0.4,1.8,0.8,2.2,1.3c0.4,0.5,0.7,1.1,0.7,1.8c0,1.1-0.5,2.1-1.5,3c-1,0.8-2.5,1.3-4.5,1.3
		c-1.9,0-3.4-0.5-4.5-1.4c-1.1-0.9-1.9-2.4-2.2-4.5l-6,0.6c0.4,3.4,1.6,6,3.7,7.7s5,2.7,8.8,2.7c2.7,0,4.9-0.4,6.5-1.1
		c1.8-0.7,3.2-1.9,4.1-3.4c1-1.5,1.5-3.2,1.5-4.9c0-2-0.4-3.6-1.2-4.9c-0.8-1.3-1.9-2.4-3.4-3.1c-1.4-0.7-3.7-1.5-6.6-2.2
		c-3-0.7-4.9-1.4-5.7-2.1c-0.6-0.5-0.9-1.1-0.9-1.9s0.3-1.4,1-1.9c1-0.7,2.4-1.1,4.2-1.1c1.7,0,3,0.3,3.9,1c0.9,0.7,1.4,1.8,1.7,3.4
		l6.2-0.3c-0.1-2.8-1.1-5.1-3.1-6.6c-2-1.7-4.8-2.5-8.6-2.5C37,11.1,35,11.4,33.3,12.2"/>
	<polygon class="st1" points="24.5,10.7 23.6,10.7 24.9,10.7 	"/>
	<polygon class="st1" points="20.3,10.7 19.5,10.7 19.7,10.7 	"/>
	<path class="st1" d="M23.3,18.7L23.3,18.7l-0.1-0.3c0,0.4,0,0.5,0.1,0.5C23.3,18.9,23.4,18.9,23.3,18.7
		C23.3,18.7,23.3,18.7,23.3,18.7"/>
	<path class="st1" d="M23.3,22.4c0-0.1-0.1-0.3-0.1-0.5c0,0.5,0.1,0.8,0.1,0.8l0,0v-0.6V22.4L23.3,22.4z"/>
	<path class="st1" d="M23.2,21.8L23.2,21.8v-0.2C23.2,21.6,23.2,21.7,23.2,21.8"/>
	<path class="st1" d="M23.3,24.2v-0.4c0-0.2,0-0.4,0-0.7V24.2z"/>
	<path class="st1" d="M23.2,28.8L23.2,28.8c-0.1,0.9,0,1.5-0.1,2l0,0v0.1c0,0.1,0,0.1,0,0.1v-0.3c0-0.2,0-0.5,0-0.9
		C23.2,29.4,23.2,29.1,23.2,28.8"/>
	<path class="st1" d="M23.2,26c0,0.2,0,0.4,0,0.4s0-0.1,0.1-0.2l0,0C23.2,26.2,23.2,26.1,23.2,26"/>
	<path class="st1" d="M47.9,10.6h-0.2c-0.5,0-0.7,0-0.6,0.1c0.1,0,0.2-0.1,0.3-0.1s0.2,0,0.2,0C47.7,10.7,47.8,10.7,47.9,10.6h0.3
		C48.3,10.6,48.2,10.6,47.9,10.6"/>
	<path class="st1" d="M50,10.7c-0.3,0-0.5,0-0.7,0c0,0-0.1,0-0.3,0s0,0,0.7,0.1c0.3,0,0.6-0.1,1.1-0.1c0.5,0,1,0,1.5,0h1.1l-0.2-0.1
		h-0.3c-0.5,0-1,0-1.5,0C50.9,10.7,50.5,10.7,50,10.7"/>
	<polygon class="st1" points="43.1,10.3 43.6,10.3 43.3,10.3 43,10.3 43,10.3 	"/>
	<path class="st1" d="M41.8,10.7h0.5c0.2,0,0.1,0-0.2,0c-0.6,0-0.9,0-1,0s-0.3,0.1-0.5,0.1h0.5c0.4,0,0.7,0,0.9-0.1
		C42.1,10.7,42.1,10.7,41.8,10.7"/>
	<polygon class="st1" points="55.6,5 55.6,5.3 55.6,5.5 	"/>
	<path class="st2" d="M61.4,2.6c-1.1,0.1-1.7,0.7-1.9,1.9c0.1,1.1,0.7,1.7,1.9,1.9c1.1-0.1,1.7-0.7,1.9-1.9
		C63.2,3.4,62.6,2.7,61.4,2.6 M57.1,4.5c0-1.2,0.4-2.2,1.2-3c0.9-0.9,1.9-1.3,3.1-1.3s2.2,0.4,3,1.3c0.8,0.8,1.2,1.8,1.3,3
		c0,1.2-0.5,2.2-1.3,3c-0.8,0.8-1.8,1.2-3,1.3c-1.2,0-2.3-0.5-3.1-1.3C57.6,6.7,57.1,5.7,57.1,4.5"/>
	<path class="st1" d="M64.6,10.8c0.1,0,0.2,0,0.3,0h-2.2h0.8c0.1,0,0.1,0,0.3,0h0.3H64.6z"/>
	<path class="st1" d="M68.3,10.7c-0.1,0-0.1,0-0.2,0s-0.1,0-0.3,0h-0.2H68.3z"/>
	<path class="st1" d="M68.5,10.7c0.1,0,0.1,0,0.2,0c-0.1,0-0.3,0-0.4,0H68.5z"/>
	<path class="st1" d="M67.2,10.8h-0.7c0.3,0,0.6-0.1,1.1-0.1c-0.5,0-0.9,0-1.3,0.1c-0.3,0-0.5,0.1-0.4,0.1L67.2,10.8z"/>
	<path class="st1" d="M58.2,10.7c-0.3,0-0.2,0,0.3,0c-0.1,0,0.1,0,0.5-0.1C58.7,10.7,58.5,10.7,58.2,10.7"/>
	<path class="st1" d="M55.4,11L55.4,11L55.4,11L55.4,11z"/>
	<path class="st1" d="M55.5,17.1L55.5,17.1C55.5,17.1,55.5,17.1,55.5,17.1c0-0.2,0-0.3-0.1-0.3C55.5,17,55.5,17.1,55.5,17.1"/>
	<path class="st1" d="M55.8,28.1l-0.1-0.4C55.7,28,55.7,28.2,55.8,28.1C55.8,28.1,55.9,28.1,55.8,28.1C55.8,28,55.8,28,55.8,28.1
		C55.8,27.9,55.8,28,55.8,28.1"/>
	<polygon class="st0" points="63.4,12 56.3,12 67.4,29.5 67.4,42.3 73.4,42.3 73.4,29.5 84.6,12 77.6,12 70.5,24 	"/>
	<path class="st1" d="M82.3,10.6c0.3,0,0.7,0,1,0H82.3c-0.6,0-1.2,0-1.7,0c0.2,0,0.5,0,0.7,0C81.6,10.6,82,10.6,82.3,10.6"/>
	<path class="st1" d="M74.7,10.7c-0.1,0-0.3,0-0.4,0c-0.4,0-0.6,0-0.6,0.1c0,0,0,0.1,0.1,0.1s0.2,0,0.3,0h-0.3L74.7,10.7z"/>
	<path class="st1" d="M55.3,38.2c0,0,0,0.1-0.1,0.3c0,0.2,0,0.3,0,0.3c0,0.2,0,0.5,0.1,0.9l-0.1,0.1v0.3h0.3c0-0.2,0-0.3-0.1-0.5
		c0-0.1,0.1-0.1,0.1-0.1s0.1,0,0.1,0.1c0-0.5,0-0.7,0-0.7s-0.1-0.2,0-0.5v0.3c0-0.4-0.1-0.6-0.2-0.7v1.2c0,0-0.1-0.2-0.1-0.4
		S55.3,38.4,55.3,38.2C55.3,38.2,55.3,38.2,55.3,38.2"/>
	<path class="st1" d="M55.5,40.1h-0.3c0,0.4,0,0.7,0.1,1.1l0,0l0,0c0.1,0.2,0.1,0.4,0.1,0.7v-0.2c0,0.2,0.1,0.3,0.1,0.5h0.2v-0.1
		v0.1h0.1c0-0.3-0.1-0.6-0.1-0.9C55.6,40.8,55.6,40.5,55.5,40.1"/>
	<path class="st1" d="M87.4,43c-0.2,0-0.4,0-0.6,0c-0.3,0-0.3,0-0.1,0h-1.4H85h-0.4c-0.8,0-1.3,0-1.4,0.1C82.8,43,82.3,43,81.5,43
		c-0.9,0-1.9,0-2.9,0c0.1,0-0.2,0.1-0.7,0.1h-0.2h-0.2c-0.3,0-0.5,0-0.7,0c0,0,0.2-0.1,0.6-0.1s0.7,0,0.8-0.1c-0.5,0-1,0.1-1.5,0.1
		h-1.2c-0.4,0-0.8,0-1.2,0c-0.7,0-1.2,0-1.5,0.1c-0.2,0-0.2,0-0.1,0c-0.3,0-0.7,0-1.1-0.1c-0.1,0,0,0,0.1,0.1c0.1,0,0,0-0.3,0
		s-0.4,0-0.4-0.1c0,0,0,0-0.1,0c-0.7,0-1.3,0-2.1,0.1c-0.6,0-1,0.1-1.2,0.1h13.1c0.5,0,1.1,0,1.6-0.1c-0.2,0-0.3,0-0.5,0.1H94
		c0.1,0,0.3-0.1,0.7-0.1c0.3,0,0.4,0,0.2,0.1h0.4c-0.5,0-0.5-0.1,0-0.1c-1.1,0-2.3,0-3.5,0c-1.5,0-2.9,0-4.3,0l0.7-0.1h-0.2
		C87.8,43,87.6,43,87.4,43"/>
	<path class="st1" d="M82.5,43.2h-0.9c0.4,0,0.9-0.1,1.4-0.1c0.4,0,0.8,0,1.3,0h1.3c0.4,0,0.9,0,1.3,0c0.1,0,0,0-0.1,0
		c-0.2,0-0.3,0-0.5,0h0.5c0.3,0,0.5,0,0.8-0.1c0.5,0,0.8,0,1.2,0c0.3,0,0.4,0,0.2,0.1h0.3c0.2,0,0.2,0,0.1,0S89.3,43,89.5,43h0.2
		l1-0.1c0.4,0,0.8,0,1.2,0.1c0.4,0,0.7,0,0.9,0.1c0.8,0,1.2-0.1,1.2-0.1s0,0,0.1-0.1H81.7h-0.1c-0.1,0-0.4,0.1-0.8,0.1
		c0.5,0,0.7,0,0.5,0c-0.1,0-0.1,0.1,0.1,0.1h0.4c0.3,0,0.5,0,0.5-0.1C82.3,43.2,82.4,43.2,82.5,43.2"/>
	<path class="st1" d="M95.4,43.1L95.4,43.1h-0.2h-0.4h-0.1c-0.2,0-0.3,0-0.4,0H95.4c-0.1,0-0.4,0.1-0.8,0.1c-0.3,0-0.5,0.1-0.5,0.1
		c0.5,0,0.9,0,1.2,0c0.3,0,0.9,0,1.5,0h-0.1c0.3,0,0.7,0,1.2,0h0.7h0.6h0.3c-0.2,0-0.4,0-0.8,0.1h-1c0.2,0,0.5,0,0.9,0
		c0.5,0,1.1,0,1.7,0s1-0.1,1.3-0.1s0.6,0,0.9,0c0.3,0,0.3,0,0,0.1h0.2c0.6,0,0.9,0,1-0.1c0.1,0,0.2,0,0.5,0h-3.3l0,0h-0.7h0
		L95.4,43.1L95.4,43.1z"/>
	<path class="st1" d="M95.9,43c-0.1,0.1-0.2,0.1-0.4,0.1h4.8c-0.1,0-0.1,0-0.1-0.1h-0.1c-0.4,0-0.8,0-1.2,0c-0.3,0-0.6-0.1-0.9-0.1
		l0,0c-0.1,0-0.3,0-0.7,0h-0.2h-0.2c-0.4,0-0.5,0-0.4,0.1H95.9z"/>
	<path class="st1" d="M100.9,43.1c0.1,0,0.2,0,0.2,0h3.3c0.1,0,0.2,0,0.2,0h0.3l0,0h5l0,0h-0.5c-0.9,0-1.9,0-2.8,0h-2.8
		C102.9,43,101.9,43,100.9,43.1"/>
	<path class="st1" d="M105,43.1L105,43.1c0.3,0.1,0.7,0.1,1.1,0.1c0.5,0,1,0,1.4,0c0.5,0,0.9,0,1.4,0c0.3,0,0.7,0,1,0l0.1-0.1H105z"
		/>
	<path class="st1" d="M59.2,42.9c-0.5,0-1,0-1.4,0c-0.7,0-1.5,0-2.2,0l0,0v-0.1v0.1l0,0l0,0l0,0l0,0l0,0v-0.1h-0.1v0.1h-0.2v-0.1
		h-0.1v0.1h-1.2c-0.1,0-0.3,0-0.5,0s-0.2,0-0.2,0.1c0.1,0,0.4-0.1,0.9-0.1H55c0.1,0.1-0.1,0.1-0.4,0.1s-0.5,0-0.5,0
		c0.3,0,0.5,0,0.7,0c0.2,0,0.3,0,0.4,0h6.2h0.1h0.1h3c0.2,0,0.4,0,0.7,0l0,0h2.2c-0.1,0-0.2,0-0.3,0c-0.1,0-0.1,0,0.1,0
		c-0.6,0-1,0-1.3,0h-0.6h-0.8h-0.9c0.1,0,0.2,0,0.3-0.1c0.1,0,0.2,0,0.4,0c0.1,0,0.2,0,0.4,0c-0.2,0-0.6-0.1-1.1-0.1h-1.2
		c-0.4,0-0.8,0-1.3,0c-0.3,0-0.7,0-1,0l-0.6,0.1H59.2C58.6,43,58.6,43,59.2,42.9"/>
	<path class="st1" d="M55.1,43.1L55.1,43.1c-0.4,0-0.9,0.1-1.2,0.1h0.8c0.2,0,0.2,0,0.1,0.1c-0.1,0,0,0,0.1,0H55c0.1,0,0.2,0,0.4,0
		l0,0v0.1h0.1c0-0.1,0-0.1,0-0.1h0.1v0.1h0.1c0-0.1,0-0.1,0-0.1l0,0v0.1h0.1v-0.1c0.3,0,0.7,0,1,0c0.4,0,0.8,0,1,0h0.1h-0.2l0.8,0.1
		h0.4h0.1h4.4l0.1-0.1c0.3,0,0.4,0,0.4,0s0,0,0.1,0c0,0,0.2,0,0.4,0c-0.1,0-0.2-0.1-0.4-0.1c-0.2,0-0.4,0-0.7,0h-0.8h-0.1
		c0.2,0,0.5,0,0.9,0h-1.5c-0.7,0-1.3,0-1.8,0.1c-0.2,0-0.2-0.1,0-0.1h-0.3h-0.3c-0.1,0-0.2,0-0.3,0h-0.3c0.2,0,0.5-0.1,1.1-0.1
		c0.5,0,1,0,1.4,0H55.1z"/>
	<path class="st1" d="M61.3,43.1c0.4,0,0.8,0,1.2,0c0.7,0,1.3,0,2,0H61.3z"/>
	<path class="st1" d="M65.2,43.1c-0.1,0-0.1,0.1-0.3,0.1c-0.2,0-0.2,0.1,0,0.1h0.6c0.3,0,0.5,0,0.7,0s0.3,0,0.7-0.1
		c0.4,0,0.5,0,0.5,0.1c0,0,0.3,0,1,0.1h-0.5h0.8h0.2h0.1c-0.1,0-0.2,0-0.2-0.1h-0.5h-0.1c0,0,0.1,0,0.2-0.1c0.2,0,0.3,0,0.5,0h-0.2
		c0.1-0.1,0.5-0.1,0.9-0.1h0.4c-0.2,0-0.2,0.1,0.2,0.1s0.6,0,0.8,0h-0.2c0.7,0,1.3,0,1.8,0l0,0c0.3,0,0.7-0.1,1.2-0.1h0.2
		c-0.1,0-0.2,0-0.4,0.1c-0.2,0-0.1,0.1,0.1,0.1h0.1c-0.1,0-0.4,0.1-0.9,0c-0.2,0-0.3,0-0.5,0c0.2,0,0.4,0,0.4,0.1l0,0h0.8l0,0h0.1
		h0.9c0.1,0,0.2,0,0.3,0c0.3,0,0.4,0,0.5-0.1l-0.9,0.1c0,0,0.1-0.1,0.3-0.1c0.2,0,0.3,0,0.4-0.1c0.1,0,0.3,0,0.5,0
		c0.3,0,0.5,0,0.8,0h0.8h0.5h-0.3H78c0.9,0,1.9,0,2.8-0.1H67.6h-0.1h-0.2H65.2z"/>
	<path class="st1" d="M72.4,43.3c0.1,0-0.1,0-0.5,0c0.1,0,0.2,0,0.3,0c0.1,0,0.3,0,0.4,0H73h0.2l0,0H72.4z"/>
	<polygon class="st1" points="73.3,43.3 73.7,43.3 74.3,43.3 	"/>
	<path class="st1" d="M68.6,43.3h-0.8h-0.3c0.2,0,0.3,0.1,0.5,0.1s0.3,0,0.4,0C68.4,43.3,68.5,43.3,68.6,43.3"/>
	<path class="st1" d="M64.4,43.3h-0.6h-0.6h-4.4c0.4,0.1,1,0.1,1.8,0.1H61c0.3,0,0.8-0.1,1.7-0.1C63.5,43.4,64.1,43.4,64.4,43.3"/>
	<polygon class="st1" points="58.7,43.3 58.7,43.3 58.8,43.3 58.4,43.3 	"/>
	<path class="st1" d="M55.8,43.3L55.8,43.3C55.7,43.4,55.7,43.4,55.8,43.3c-0.1,0.1-0.1,0.2,0,0.2l0,0
		C55.8,43.5,55.8,43.4,55.8,43.3"/>
	<path class="st1" d="M55.6,43.3L55.6,43.3v0.3l0,0C55.6,43.5,55.6,43.4,55.6,43.3"/>
	<path class="st1" d="M55.4,43.3L55.4,43.3c-0.1,0.1-0.1,0.1,0,0.2h0.1C55.5,43.5,55.4,43.4,55.4,43.3"/>
	<path class="st1" d="M55.4,42.2L55.4,42.2c0,0.3,0.1,0.5,0.1,0.5s0.1-0.1,0.1-0.2v0.4h0.1v-0.7H55.4z"/>
	<path class="st1" d="M55.3,42.6L55.3,42.6c0,0,0,0.2,0,0.3h0.1C55.3,42.8,55.3,42.7,55.3,42.6"/>
	<path class="st1" d="M55.7,42.8L55.7,42.8L55.7,42.8z"/>
	<path class="st1" d="M55.8,43.6L55.8,43.6L55.8,43.6C55.8,43.6,55.8,43.6,55.8,43.6"/>
	<path class="st1" d="M55.6,43.6L55.6,43.6L55.6,43.6C55.5,43.7,55.5,43.6,55.6,43.6h-0.2c0,0.1,0,0.1,0,0.1S55.4,43.7,55.6,43.6
		c0,0.2,0,0.4,0,0.6l0,0v-0.1C55.6,43.9,55.6,43.7,55.6,43.6"/>
	<path class="st1" d="M55.7,42.2L55.7,42.2c-0.1,0.2-0.1,0.3,0,0.3c0-0.1,0,0,0.1,0.2C55.8,42.5,55.7,42.3,55.7,42.2"/>
	<path class="st1" d="M55.6,44.2L55.6,44.2c-0.1,0.2-0.1,0.4-0.1,0.6c0,0.5,0,1,0,1.5l0,0c-0.1-0.1-0.1-0.3-0.1-0.7
		c0-0.3,0-0.4,0-0.5c0-0.4,0-0.5-0.1-0.5l0,0c0,0,0,0-0.1,0c0,0.1,0-0.1,0-0.5h-0.1c0,0.2,0,0.4,0.1,0.7c0,1.3,0,2.4,0,3.2
		c0,0.8,0,1.2,0,1.2v1.1h0.1c0,0,0,0,0-0.1c0-0.2,0-0.3,0.1-0.3c0,0,0,0.2,0,0.4h0.2V50c0-0.3,0-0.8,0-1.3c0,0.1,0.1,0.3,0.1,0.6
		s0,0.6,0,0.8c0-0.2,0-0.4,0-0.7c0-0.2,0-0.4,0.1-0.4l-0.1-0.1c0-0.2,0-0.3,0-0.3s0,0,0,0.1s0.1,0.1,0.1,0.1l0,0
		c0-0.7,0-0.9-0.1-0.9c-0.1,0.1-0.1-0.1-0.1-0.7c0.1-0.2,0.1-0.5,0-0.9c0,0.1,0,0.1,0.1,0.1l0.1-0.1c-0.2,0.2-0.2-0.1-0.2-0.2
		c0-0.2,0.1-0.5,0.1-1c0,0,0.1,0.1,0.1,0.2c0,0.1,0.1,0.2,0.1,0.3c0-0.3-0.1-0.6-0.1-0.9C55.7,44.5,55.7,44.3,55.6,44.2"/>
	<path class="st1" d="M55.3,44.2L55.3,44.2L55.3,44.2c0.1-0.2,0.1-0.3,0.1-0.3S55.4,44,55.3,44.2L55.3,44.2L55.3,44.2l0.1-0.2
		l-0.1-0.7C55.3,43.7,55.3,44,55.3,44.2"/>
	<path class="st1" d="M55.4,44.2L55.4,44.2L55.4,44.2C55.4,44.3,55.4,44.3,55.4,44.2"/>
	<path class="st1" d="M55.6,50.4h-0.2v0.1c0,0.3,0,0.5,0.1,0.5l0,0v-0.3c0.1,0.1,0.1,0.4,0.2,0.7C55.6,51,55.6,50.6,55.6,50.4"/>
	<path class="st1" d="M55.4,50.4L55.4,50.4l-0.1,6.2h0.4v-2.3c0,0-0.1-0.2-0.1-0.5l0.1-0.1l0,0l0,0c0,0-0.1,0-0.1,0.2
		c0-0.5,0-0.9-0.1-1.2c-0.1-0.2-0.1-0.5-0.1-0.9l0.1,0.1c0-0.3,0-0.6,0-0.8C55.4,50.8,55.4,50.6,55.4,50.4"/>
	<path class="st1" d="M55.7,56.6h-0.4v4.1c0,0.6,0,1,0.1,1.3c0,0.3,0,0.5,0.1,0.8c0-0.1,0-0.3,0-0.5s0-0.3,0-0.3
		c0-0.2-0.1-0.5-0.1-1.1l0,0c0,0,0,0.1,0,0.2v0.2v-0.1c0,0.1,0.1,0.2,0.1,0.4c0.1-0.4,0.1-0.8,0.1-1.3c0-0.5,0-0.9-0.1-1.2
		c0-0.1,0-0.2,0-0.2s0,0.1,0.1,0.3c0,0.2,0,0.4,0.1,0.5c0-1,0-1.9,0-2.7C55.7,56.9,55.7,56.7,55.7,56.6"/>
	<path class="st1" d="M55.7,42.9L55.7,42.9L55.7,42.9z"/>
	<path class="st1" d="M55.3,42.6L55.3,42.6c0-0.1,0-0.2,0-0.3V42.6z"/>
	<polygon class="st1" points="63.8,43.2 63.8,43.2 63.2,43.2 	"/>
	<path class="st1" d="M110.7,43.2c0.2,0,0.3,0,0.4,0s0.3,0,0.5,0c0.1,0,0.3,0,0.4,0c0,0-0.2,0-0.4-0.1c-0.2,0-0.3-0.1-0.3-0.1
		c-0.5,0-0.9,0-1.3,0C110.1,43.1,110.4,43.1,110.7,43.2c0.2-0.1,0.4-0.1,0.5-0.1h-0.8C110.5,43.2,110.6,43.2,110.7,43.2"/>
	<polygon class="st1" points="111.6,43 111.3,43 112.1,43 	"/>
	<polygon class="st1" points="100.9,43 100.8,43.1 100.9,43.1 	"/>
	<path class="st1" d="M70.8,43.5l0.7-0.1h-0.3C70.8,43.4,70.7,43.4,70.8,43.5C70.7,43.5,70.7,43.5,70.8,43.5
		C71,43.5,71,43.5,70.8,43.5"/>
	<path class="st1" d="M77.8,43.3h0.8C78.4,43.3,78.1,43.3,77.8,43.3c-0.5,0-1,0-1.4,0c0.2,0,0.4,0,0.5,0
		C77.3,43.3,77.6,43.3,77.8,43.3"/>
	<path class="st1" d="M55.7,30.7c0,0.1,0,0.1,0,0.2V31V30.7z"/>
	<path class="st1" d="M55.8,31.5c0-0.1-0.1-0.3-0.1-0.5c0,0.5,0.1,0.7,0.1,0.8l0,0l-0.1-0.6L55.8,31.5L55.8,31.5z"/>
	<path class="st1" d="M55.9,33.3v-0.4c0-0.2,0-0.4,0-0.7V33.3z"/>
	<path class="st1" d="M55.8,35.3c0,0-0.1-0.1-0.1-0.2c0,0.2,0,0.3,0.1,0.4C55.8,35.5,55.8,35.4,55.8,35.3L55.8,35.3L55.8,35.3z"/>
	<path class="st1" d="M55.8,38.6v-0.9l-0.1,0.1c0.1,0.7,0.1,1.3,0.1,1.8c0,0,0,0,0,0.1s0,0.1,0,0.1s0-0.1,0-0.3
		C55.8,39.2,55.8,38.9,55.8,38.6"/>
	<path class="st1" d="M55.7,40.1L55.7,40.1c0,0,0,0.1-0.1,0.2c0,0.2,0,0.4,0,0.4s0,0,0-0.1C55.7,40.4,55.7,40.3,55.7,40.1"/>
	<path class="st1" d="M58.2,43.5c0,0,0.1-0.1,0.4-0.1c-0.2,0-0.4,0-0.7,0C57.7,43.4,57.8,43.4,58.2,43.5"/>
	<path class="st1" d="M55.3,41.1c0-0.1,0-0.2,0-0.2l0,0V41.1z"/>
	<path class="st1" d="M22.7,29.3c0,0,0,0.1,0,0.3c0,0.2,0,0.3-0.1,0.3c0,0.3,0.1,0.6,0.1,1l0,0c0,0.5,0,1,0,1.4v0.1
		c0,0.1,0.1,0.4,0.1,0.7V33c0,0.2,0.1,0.4,0.1,0.7c0,0.2,0.1,0.4,0.1,0.4s0,0,0.1-0.2v1.3c-0.2-0.2-0.3-0.6-0.3-1.3v-0.1
		c0,0.2,0,0.5,0,0.8c0,0.3,0.1,0.4,0.1,0.4s0,0,0-0.1c0.1,0.3,0.1,0.7,0.1,1.3c0,0.5,0,1,0,1.5h0.1c0-0.1,0-0.2,0-0.2
		c0-0.2,0.1-0.5,0-1l0,0c0,0,0,0.1,0,0.2c0,0.1,0.1,0.2,0.1,0.3c0-0.3,0-0.6,0-0.9s-0.1-0.5-0.1-0.6v-2.1c0,0.3,0,0.4,0.1,0.4
		c0,0,0.1,0.1,0.1,0.2c-0.1-0.4-0.1-0.9-0.2-1.5c0-0.6-0.1-1.2-0.2-1.7c0.1-0.1,0.1-0.1,0.1-0.1s0.1,0,0.1,0.1c0-0.5,0-0.7,0-0.7
		s0-0.1,0-0.4v0.2c0-0.4-0.1-0.6-0.1-0.7v1.2c0,0-0.1-0.2-0.1-0.4s0-0.5,0-0.6C22.7,29.4,22.7,29.3,22.7,29.3"/>
	<path class="st1" d="M22.7,35.6c0-0.1,0-0.2,0-0.2C22.7,35.4,22.7,35.5,22.7,35.6l0.1,0.2C22.8,35.8,22.8,35.7,22.7,35.6l-0.1-0.8
		c0,0.6,0,1.2,0.1,1.6c0,0.5,0,1,0.1,1.4H23c-0.1-0.1-0.1-0.3-0.1-0.6s0-0.5,0.1-0.5c0-0.4-0.1-0.5-0.1-0.5l0,0l0,0
		C22.7,36.3,22.7,36.1,22.7,35.6"/>
	<path class="st1" d="M23,37.8L23,37.8L23,37.8L23,37.8L23,37.8h-0.3v1.9c0,0.8,0,1.3-0.1,1.3v1.2h0.2V42c0-0.2,0.1-0.3,0.1-0.3
		s0,0.1,0,0.4h0.2v-0.3c0-0.4,0-0.8,0-1.4c0,0.1,0.1,0.3,0.1,0.7c0,0.3,0,0.6,0,0.8v-0.7c0-0.2,0-0.4,0-0.4l-0.1-0.1v-0.3
		c0,0,0,0,0,0.1s0,0.1,0.1,0.1v-0.1c0-0.7-0.1-1-0.1-0.9C23,39.7,23,39.5,23,38.9c0.1-0.2,0.1-0.5,0.1-0.9c0,0.1,0,0.2,0,0.2v-0.1
		C23,38,23,37.9,23,37.8"/>
	<path class="st1" d="M31.8,43c0.6,0,0.7,0.1,0.4,0.1s-0.6,0-1.1,0c-0.4,0-0.6,0.1-0.5,0.1h0.1h0.4l0,0h7.6c0.1,0,0.2,0,0.3,0
		c0.3,0,0.5,0,0.8-0.1h0.3c0.3,0,0.4,0,0.5,0.1c0.6,0,0.9,0,0.9-0.1c0,0,0-0.1-0.1-0.1c0,0,0.2-0.1,0.7-0.1h0.4c0.3,0,0.4,0,0.2,0.1
		c-0.2,0-0.3,0-0.4,0c-0.1,0,0,0,0.5,0l1.2-0.1c-1,0-1.9,0-2.7,0.1c-1.7,0-3.2,0.1-4.4,0.1c-2.2,0-3.3,0-3.3-0.1l-10.4,0.1v-0.3
		l-0.2,0.1V43H23c0-0.3,0-0.6,0-0.9h-0.2v0.1c0,0.3,0,0.4,0.1,0.5c0,0,0,0,0-0.1v-0.3c0.1,0.1,0.1,0.3,0.1,0.6h-0.2v-0.3
		c0-0.2,0-0.4,0-0.7h-0.1v0.9h-8.9c-1,0-1.8,0-2.3,0s-0.9,0.1-1.3,0.1h17.5c0.1,0,0.3,0,0.4,0c0.4-0.1,0.9-0.1,1.4-0.1l-0.1,0.1h1.3
		C31,43,31.3,43,31.8,43"/>
	<path class="st1" d="M43.8,43c-0.3,0-0.4,0.1-0.2,0.1c-0.2,0-0.3,0-0.5,0.1h0.6c0.2-0.1,0.8-0.2,1.7-0.2l0.2-0.1h-0.5
		C44.6,42.9,44.1,42.9,43.8,43"/>
	<path class="st1" d="M47.9,42.9L47.9,42.9L47.9,42.9c-0.4,0-0.8,0.1-1.3,0.1H47c-0.5,0-1,0.1-1.4,0.1c-0.1,0-0.2,0-0.3,0H50
		c0.2,0,0.4,0,0.6-0.1c0,0,0.1,0,0.1,0.1H53l0,0c0.1,0,0.2-0.1,0.4-0.1h-2.1c0.1,0,0.3-0.1,0.7-0.1s0.8,0,1,0s0.1-0.1-0.3-0.1
		s-0.6,0-0.6-0.1c-0.2,0-0.4,0-0.7,0.1h-0.9h-0.1c-0.2,0-0.3,0-0.5,0c-0.3,0-0.7,0-0.9,0.1C48.6,42.9,48.3,42.9,47.9,42.9"/>
	<polygon class="st1" points="30.9,43.1 30.8,43.1 30.8,43.1 	"/>
	<path class="st1" d="M31.2,43.1c-0.3,0.1-0.7,0.1-1.2,0.1C30.5,43.2,30.9,43.2,31.2,43.1l1,0.1c0.3,0,0.7,0,1,0c0.3,0,0.7,0,1.2,0
		c-0.2,0-0.5,0.1-1.1,0.1c-0.6,0-1,0-1.3,0h0.2h0.6h0.6c0.3,0,0.4,0,0.5,0l0.1-0.1h0.2c0.3,0,0.4,0,0.2,0.1c-0.2,0-0.2,0-0.1,0.1
		c0.8,0,1.3,0,1.4-0.1c0.1,0,0.2-0.1,0.2-0.1c0-0.1,0.4-0.1,1.1-0.1c0.1,0,0.2,0.1,0.4,0.1s0.3,0,0.5,0h0.7h0.2
		c-0.3,0-0.5,0-0.5,0.1c0,0,0,0,0.1,0.1c0.3,0,0.5-0.1,0.7-0.1c0.2,0,0.4,0,0.7,0c0.2,0,0.6,0,1,0c0.1,0,0.2,0,0.4,0
		c0,0-0.1,0.1-0.4,0.1c-0.2,0-0.4,0-0.5,0.1c0.5,0,1,0,1.5,0s0.9-0.1,1-0.1h0.1h1.6c0.5,0,0.9,0,1.3,0h0.5c-0.5,0-0.7,0-0.6,0.1
		c0.1,0-0.1,0.1-0.4,0.1c0.6-0.1,1.5-0.1,2.5-0.2c0.8-0.1,1.6-0.1,2.3-0.1h-4.7c-0.1,0,0,0.1,0.3,0.1h-2.1c0,0,0.1,0,0.1-0.1H43
		c-0.3,0-0.6,0-1,0s-0.8,0-1.1,0h-1.2c-0.3,0-0.7,0-1,0l0,0L31.2,43.1L31.2,43.1z"/>
	<path class="st1" d="M26.5,43.2c0.4,0,0.8,0,1.2,0H10.2h-0.1c0.2,0,0.5,0,0.9,0c0.3,0,0.5,0,0.5,0c0.3,0,0.9,0,1.8,0h0.2
		c0,0-0.2,0-0.5,0h-0.1h-0.1l0,0H13c-0.1,0.1-0.3,0.1-0.6,0.1c0.5,0,1.2,0.1,2,0.1c1,0,1.9,0,2.4-0.1c0.4,0,0.4,0.1,0,0.1
		c-0.4,0-0.8,0-1.2,0c1.7,0,3.3,0.1,4.7,0.1h2.6v0.8H23c-0.2-0.3-0.2-0.6-0.2-0.8l0.1,0.1v-0.1h0.4H25c0.1-0.1,0.3-0.1,0.8-0.1h0.3
		c0,0,0,0,0-0.1c0,0-0.1,0-0.3-0.1C26.1,43.2,26.3,43.2,26.5,43.2"/>
	<path class="st1" d="M52.2,43.2c0.4,0,0.7,0,0.8-0.1h-2.3c0.1,0.1,0.1,0.1,0,0.1c0.3,0,0.5,0,0.7,0c0.3,0,0.5,0,0.5-0.1
		c0.1,0,0.3,0,0.7,0H53L52.2,43.2z"/>
	<path class="st1" d="M22.9,44.2L22.9,44.2l-0.1,2.2h0.4v-0.2c-0.1-0.1-0.1-0.2-0.1-0.5v-0.2l0,0l0,0c0,0,0,0.1-0.1,0.2
		c0-0.5,0-1-0.1-1.2C22.9,44.3,22.9,44.3,22.9,44.2"/>
	<path class="st1" d="M23.2,46.4h-0.4v6.4c0,0.6,0,1.1,0,1.4s0.1,0.6,0.1,0.8c0-0.1,0-0.3,0-0.5s0-0.3,0-0.3c0-0.2-0.1-0.6-0.1-1.2
		c0,0,0,0.1,0,0.2c0,0.1,0,0.2,0,0.2v-0.1c0,0.1,0.1,0.2,0.1,0.4c0-0.4,0.1-0.9,0.1-1.4c0-0.5-0.1-1-0.1-1.2c0-0.1,0-0.2,0-0.2
		s0,0.1,0,0.3s0,0.4,0.1,0.5c0-1,0.1-2,0.1-2.8C23.2,48.2,23.2,47.3,23.2,46.4"/>
	<polygon class="st1" points="45.4,43 45.5,43 45.9,43 45.7,43 	"/>
	<polygon class="st1" points="22.7,33.9 22.7,33.9 22.7,33.6 	"/>
	<path class="st1" d="M52.4,43.4c-0.4,0-0.8,0-1.2,0c-0.2,0-0.4,0-0.6,0c0,0-0.1,0-0.3,0.1c-0.1,0,0.1,0,0.6,0
		c0.5,0,1.2-0.1,2.2-0.1H54h-0.2h-0.1C53.3,43.4,52.9,43.4,52.4,43.4"/>
	<polygon class="st1" points="55.7,47.8 55.7,47.6 55.6,47.4 	"/>
	<path class="st1" d="M64.7,43.5c-0.3,0-0.4,0.1-0.3,0.1l1-0.1h-0.5c0.2,0,0.5-0.1,0.8-0.1C65.3,43.4,64.9,43.4,64.7,43.5"/>
	<path class="st1" d="M66,43.4h-0.2h-0.1h0.5H66z"/>
	<path class="st1" d="M66.6,43.4c-0.1,0-0.2,0-0.4,0h0.2C66.5,43.4,66.5,43.4,66.6,43.4"/>
	<path class="st1" d="M62.4,43.5c0.1,0,0.1,0,0.2,0c0.1,0,0.2,0,0.3,0h0.3c0.1,0,0.2,0,0.3,0h-1.8H62.4z"/>
	<polygon class="st1" points="55.8,51 55.7,51.2 55.8,51.6 	"/>
	<path class="st1" d="M55.7,52.2c0-0.2,0-0.3,0-0.4v0.6V52.2z"/>
	<path class="st1" d="M55.7,52.9v0.6v-0.1V52.9z"/>
	<path class="st1" d="M37.6,42.9h-0.2c-0.3,0-0.6,0-0.9-0.1c0.1,0,0.3,0.1,0.6,0.1H37.6z"/>
	<polygon class="st1" points="36.9,43.2 36.3,43.3 36.6,43.3 	"/>
	<path class="st1" d="M49.1,43.3c0.1,0,0.1,0,0.2,0s0.1,0,0.2,0c0.1,0,0.1,0,0.2,0c0.1,0,0,0-0.2,0h-0.1c-0.5,0-0.6,0-0.5,0
		S49,43.3,49.1,43.3"/>
	<path class="st1" d="M43.8,43.5c0.8,0,1-0.1,0.5-0.1h0.5c0.1,0,0.1,0-0.1,0C44.2,43.4,44,43.4,43.8,43.5c0,0-0.1,0-0.4,0
		C43.7,43.5,43.8,43.5,43.8,43.5"/>
	<path class="st1" d="M23.1,31.3c0,0,0,0.1-0.1,0.2c0,0.2,0,0.4,0.1,0.4v-0.1V31.3L23.1,31.3z"/>
	<path class="st1" d="M22.6,32.2v0.2C22.7,32.3,22.7,32.3,22.6,32.2"/>
	<path class="st1" d="M23.1,34.5v-0.3v0.1c0,0.3,0,0.4,0,0.5s0.1,0.1,0.1,0.2c0-0.4,0-0.7-0.1-0.7C23.1,34.4,23.1,34.4,23.1,34.5"/>
	<path class="st1" d="M22.6,39.2c0-0.1,0-0.1,0-0.3v-0.3C22.7,38.7,22.7,39,22.6,39.2"/>
	<polygon class="st1" points="23.1,39.3 23.1,39.1 23,38.9 	"/>
	<path class="st1" d="M23.1,44.2V44c0-0.2,0-0.3,0-0.4V44.2z"/>
	<polygon class="st1" points="23.1,44.7 23.2,45.4 23.2,45.3 	"/>
	<polygon class="st1" points="30.7,43.4 30.3,43.4 29.6,43.4 	"/>
	<polygon class="st1" points="26.2,43.4 26.4,43.4 27.1,43.4 	"/>
	<path class="st1" d="M28.7,43.4c0.1,0,0.3,0,0.4,0h-1h0.3H28.7z"/>
	<path class="st1" d="M22.8,55L22.8,55c0,0.1,0,0.3,0,0.6C22.8,55.5,22.8,55.3,22.8,55"/>
	<path class="st1" d="M141.8,43.4c0.1,0,0.4,0,0.9,0H141.8l-0.8,0.1C141.4,43.4,141.7,43.4,141.8,43.4"/>
	<path class="st1" d="M144.7,43.4c0.1,0,0.3,0,0.5-0.1c0.2,0,0.3,0,0.2,0h-1.1L144.7,43.4z"/>
	<path class="st1" d="M137.3,43.2h0.3C137,43.2,136.9,43.2,137.3,43.2c0.6,0.1,0.9,0.1,1.3,0.1c-0.2-0.1-0.8-0.1-1.8-0.1l-0.1,0.1
		l0,0c-0.2,0-0.3,0-0.3,0s-0.1,0-0.2,0c0.1,0,0.1,0-0.1,0.1c-0.1,0-0.2,0-0.3,0.1h0.3c0.3,0,0.5,0,0.7,0
		C136.9,43.2,137.1,43.2,137.3,43.2"/>
	<path class="st1" d="M140.7,43.4h-0.5c-0.1,0-0.2,0-0.4-0.1l-0.5,0.1h0.4h0.1l-0.4,0.1L140.7,43.4z"/>
	<polygon class="st1" points="124.9,43.3 125.1,43.2 124.3,43.3 	"/>
	<path class="st1" d="M125.5,43.2c-0.3,0-0.7,0-0.9,0c-0.4,0-0.8,0-1.1,0c-0.3,0-0.6-0.1-0.9-0.1s-0.7,0-1.2,0.1l1.7,0.1
		c0.1,0,0,0.1-0.4,0.1h-0.1h-0.1h-0.7c0.3,0,0.5,0,0.7,0c0.3,0,0.5,0,0.6,0s0.4,0,0.8-0.1h0.1C124.5,43.2,125,43.2,125.5,43.2"/>
	<path class="st1" d="M127.4,43.3c0.1,0,0.2,0,0.4,0c-0.3,0-0.6-0.1-1-0.1c-0.2,0-0.3,0-0.5,0.1h0.1c0.3,0,0.5,0,0.6,0
		C127.1,43.3,127.2,43.3,127.4,43.3"/>
	<path class="st1" d="M121.1,43.1l-1,0.1l-0.5-0.1c-0.5,0-0.9,0.1-1.4,0.1c-0.3,0-0.7,0-1,0h0.1c-0.2,0-0.5-0.1-0.8-0.1
		s-0.7,0-1,0.1c-0.3,0-0.7,0-1,0h-0.4c0,0,0.1,0,0.3-0.1h-1h-0.1c0,0-0.2,0.1-0.5,0.1s-0.6,0-0.9,0.1c0.2,0,0.3,0,0.4,0
		c0.2,0,0.3,0,0.3,0c0.1,0,0.1,0,0.3,0c0.1,0,0.2,0,0.4,0c-0.2,0-0.4,0.1-0.6,0.1c0.5,0,0.9-0.1,1.1-0.1h0.1c0.2,0,0.3,0,0.3,0v0.1
		c0.3,0,0.5-0.1,0.7-0.1s0.5-0.1,0.9-0.1h0.3c0.2,0,0.3,0.1,0.2,0.1c-0.1,0-0.1,0,0.1,0h0.5c-0.2,0-0.2-0.1,0.1-0.1
		c0.1,0,0.3,0,0.5,0h0.6c0.2,0,0.4,0,0.5,0c0.8,0,1.2,0.1,1.4,0.1C120.3,43.2,120.6,43.1,121.1,43.1"/>
	<polygon class="st1" points="120.3,43.3 120.4,43.3 120,43.3 	"/>
	<path class="st1" d="M133.7,43.3c0.2,0,0.4,0.1,0.6,0.1c0.1,0,0.3,0,0.4,0c-0.9,0-1.4,0-1.6,0c-0.2,0-0.7,0-1.4-0.1h0.2h0.2h-1.1
		c-0.1,0-0.3,0.1-0.7,0.1c-0.3,0-0.2,0,0.2,0h0.8c0.1,0,0.4,0,0.8,0s0.6,0,0.6,0.1C133.2,43.3,133.5,43.3,133.7,43.3"/>
	<path class="st1" d="M128.5,43.2c0.5,0,0.7,0,0.6,0.1c1,0,1.3-0.1,0.9-0.1l-1.9,0.1C128.3,43.2,128.4,43.2,128.5,43.2"/>
	<polygon class="st1" points="111.1,43.3 110.6,43.2 110.3,43.3 	"/>
	<path class="st1" d="M111.8,43.4h0.2l0,0c0.2,0,0.2,0,0,0H111.8z"/>
	<path class="st1" d="M90.6,43.2h-0.2c-0.3,0-0.3,0-0.2,0c0.1,0,0,0-0.2,0.1h0.3C90.4,43.2,90.6,43.2,90.6,43.2"/>
	<path class="st1" d="M100.8,43h0.2C100.7,43,100.7,43,100.8,43"/>
	<g class="st3">
		<g>
			<g>
				<g>
					<defs>
						<rect id="SVGID_1_" x="139.6" y="44.1" width="116.3" height="10.8"/>
					</defs>
					<clipPath id="SVGID_2_">
						<use xlink:href="#SVGID_1_"  style="overflow:visible;"/>
					</clipPath>
					<g class="st4">
						<text transform="matrix(1 0 0 1 139.5697 52.3711)" class="st2 st5 st6">playing with digital media</text>
					</g>
				</g>
			</g>
		</g>
	</g>
	<rect x="0" y="0.3" class="st7" width="266.8" height="62.5"/>
</g>
</svg>
