<?xml version="1.0" encoding="utf-8"?>
<!-- Generator: Adobe Illustrator 24.0.1, SVG Export Plug-In . SVG Version: 6.00 Build 0)  -->
<svg version="1.1" id="Layer_1" xmlns="http://www.w3.org/2000/svg" xmlns:xlink="http://www.w3.org/1999/xlink" x="0px" y="0px"
	 viewBox="0 0 331 63" style="enable-background:new 0 0 331 63;" xml:space="preserve">
<style type="text/css">
	.st0{fill:#074754;}
	.st1{fill:#666666;}
</style>
<g>
	<path class="st0" d="M0.3,39.6l6.1-2.2c0.4,2.8,1,4.8,2,6.1c0.9,1.2,2.1,2,3.6,2s2.7-0.6,3.6-1.8c0.9-1.1,1.5-2.7,1.5-4.5
		c0-1.5-0.3-2.9-0.9-4.3c-0.6-1.4-2-3.1-4-5.2c-0.2-0.2-1.4-1.4-3.3-3.3c-2-2-3.5-3.8-4.8-5.4c-1-1.4-1.8-2.7-2.3-4.3
		s-0.7-3.2-0.7-4.9c0-3.4,1-6.3,3-8.4c2.1-2.2,4.7-3.2,8-3.2c3.1,0,5.6,0.9,7.5,2.7c1.9,1.9,3,4.5,3.2,7.8l-6,2.3
		c-0.1-2.3-0.5-4-1.4-5.1c-0.8-1.1-1.9-1.8-3.3-1.8S9.7,6.6,8.9,7.6s-1.3,2.2-1.3,3.9c0,1.4,0.3,2.6,0.8,3.7C9,16.3,10.2,18,12,20
		c0.4,0.4,1,1,2.1,2c2.8,2.7,4.9,5,6.4,7c1,1.4,1.9,2.9,2.4,4.6c0.5,1.7,0.8,3.3,0.8,5.1c0,4-1,7.2-3.2,9.6
		c-2.2,2.4-5.1,3.5-8.8,3.5c-3.2,0-5.7-1-7.8-3C2.1,46.5,0.8,43.6,0.3,39.6L0.3,39.6z"/>
	<path class="st0" d="M28.9,62.8l2.9-14.3l-7.4-33.5h6.4L33,27.7c0.3,1.8,0.5,4,0.8,6.5c0.3,2.6,0.6,5.4,0.8,8.4h0.5
		c0.4-5.1,0.7-9.2,1-12.2c0.3-3,0.5-5,0.7-5.9l1.5-9.7h6.4l-9.8,47.7h-6C28.9,62.6,28.9,62.8,28.9,62.8z"/>
	<path class="st0" d="M49.4,50.7V14.8h6v4.6c0.9-1.8,2-3,3.2-4c1.1-0.9,2.4-1.4,3.8-1.4c1.8,0,3.1,0.4,4.2,1.3
		c1,0.8,1.9,2.2,2.4,4.1c1-1.8,2.1-3.1,3.3-4c1.3-0.8,2.6-1.3,4.1-1.3c2.3,0,4,0.8,5,2.5c1,1.7,1.6,4.3,1.6,7.9v26.1h-6.3V26
		c0-2.1-0.3-3.6-0.8-4.6c-0.5-1-1.4-1.5-2.6-1.5c-1.3,0-2.2,0.5-2.8,1.6c-0.7,1-1,2.5-1,4.4v24.8h-6.3V26c0-2.1-0.3-3.6-0.8-4.6
		c-0.5-0.9-1.5-1.5-2.6-1.5c-1.3,0-2.2,0.5-2.9,1.6c-0.7,1-1,2.5-1,4.4v24.8L49.4,50.7L49.4,50.7z"/>
	<path class="st0" d="M87.1,50.7V14.8h6v4.6c0.9-1.8,2-3,3.2-4c1.1-0.9,2.4-1.4,3.8-1.4c1.8,0,3.1,0.4,4.2,1.3
		c1,0.8,1.9,2.2,2.4,4.1c1-1.8,2.1-3.1,3.3-4c1.3-0.8,2.6-1.3,4.1-1.3c2.3,0,4,0.8,5,2.5c1,1.7,1.6,4.3,1.6,7.9v26.1h-6.3V26
		c0-2.1-0.3-3.6-0.8-4.6c-0.5-0.9-1.4-1.5-2.6-1.5s-2.2,0.5-2.8,1.6c-0.7,1-1,2.5-1,4.4v24.8h-6.3V26c0-2.1-0.3-3.6-0.8-4.6
		c-0.5-1-1.5-1.5-2.6-1.5c-1.2,0-2.2,0.5-2.9,1.6c-0.7,1-1,2.5-1,4.4v24.8L87.1,50.7L87.1,50.7z"/>
	<path class="st0" d="M144.2,39.2c-0.3,4-1.4,7-3.1,9.1c-1.8,2.1-4.2,3.2-7.3,3.2c-3.6,0-6.4-1.6-8.1-4.8c-1.8-3.2-2.7-8-2.7-14.6
		c0-5.9,0.9-10.4,2.8-13.5c1.9-3,4.7-4.6,8.4-4.6c3.4,0,5.9,1.2,7.7,3.7c1.8,2.5,2.6,6.3,2.6,11.1V33h-15.1v1.4c0,4.1,0.3,7,1,8.8
		s1.8,2.6,3.3,2.6c1.2,0,2.2-0.5,2.9-1.7c0.7-1.1,1.1-2.7,1.2-4.9L144.2,39.2L144.2,39.2z M129.6,28.2h8.9v-0.4c0-2.9-0.3-5-1.1-6.4
		c-0.7-1.4-1.9-2.1-3.3-2.1c-1.4,0-2.5,0.7-3.3,2.3C130,23.1,129.6,25.2,129.6,28.2L129.6,28.2z"/>
	<path class="st0" d="M159.2,50.9c-0.5,0.1-1,0.1-1.6,0.1c-0.5,0-0.9,0.1-1.5,0.1c-2.6,0-4.4-0.6-5.4-1.9c-0.9-1.2-1.5-3.7-1.5-7.4
		V20.2h-3.3v-5.3h3.3V6h6.3v9h3.5v5.3h-3.5v20.1c0,1.9,0.2,3,0.7,3.6c0.4,0.6,1.3,0.9,2.5,0.9h0.4L159.2,50.9L159.2,50.9z"/>
	<path class="st0" d="M162.9,50.7V14.8h5.8v6.7c0.6-2.3,1.7-4.1,2.9-5.2c1.2-1.1,2.9-1.9,5-2.1v6.9H176c-2.6,0-4.4,0.6-5.4,2
		c-0.9,1.4-1.5,3.9-1.5,7.7v19.9L162.9,50.7L162.9,50.7z"/>
	<path class="st0" d="M183.4,62.8l2.9-14.3l-7.3-33.6h6.4l2.2,12.8c0.3,1.8,0.5,4,0.8,6.5c0.3,2.6,0.6,5.4,0.8,8.4h0.4
		c0.4-5.1,0.8-9.2,1-12.2c0.3-3,0.5-5,0.7-5.9l1.5-9.7h6.4l-9.8,47.7h-5.9L183.4,62.8L183.4,62.8z"/>
	<g>
		<g>
			<path class="st1" d="M218.1,56.3c-7.8-1.5-11.8-5.2-11.8-11.1V29h-3.9c-0.9,0-1.5-0.4-1.5-1.4v-0.5c0-0.8,0.5-1.4,1.5-1.4h3.9
				v-8.3c0-0.9,0.4-1.5,1.4-1.5h1c0.8,0,1.4,0.5,1.4,1.5v8.3h8.1c0.9,0,1.5,0.4,1.5,1.4v0.5c0,0.8-0.5,1.4-1.5,1.4h-8.1v16.4
				c0,2,0.8,3.5,2.4,4.8c1.7,1.2,3.5,2.1,5.6,2.6c0.9,0.2,1.5,0.6,1.5,1.4v1.1c0,0.7-0.3,1.1-0.9,1.1L218.1,56.3z"/>
			<path class="st1" d="M238.3,24.6c0.7,0.2,1.1,0.6,1.1,1.1l-0.3,1c-0.2,0.6-0.6,0.9-1.3,0.9l-0.9-0.2c-0.6-0.1-1.1-0.1-1.8-0.1
				c-4.6,0-8,2.7-10.4,8v18.6c0,0.9-0.4,1.5-1.4,1.5h-1c-0.8,0-1.4-0.5-1.4-1.5V27.3c0-0.9,0.4-1.5,1.4-1.5h1c0.8,0,1.4,0.5,1.4,1.5
				v2.8c1.6-2.4,3.2-3.9,4.9-4.6s3.8-1,6.4-1C237.2,24.4,238,24.5,238.3,24.6z"/>
			<path class="st1" d="M244.3,29.6c-0.3,0.2-0.6,0.3-0.9,0.3c-0.4,0-0.7-0.2-1-0.5l-0.6-0.7c-0.2-0.2-0.3-0.5-0.3-0.8
				c0-0.5,0.2-0.8,0.7-1.1c2.7-1.6,5.9-2.4,9.8-2.4c4.2,0,7.3,1,9.2,3.2c2,2.2,2.9,5,2.9,8.3v18.2c0,0.9-0.4,1.5-1.4,1.5h-1
				c-0.8,0-1.4-0.5-1.4-1.5v-2.9c-0.9,1.9-2.4,3.3-4.3,4.4c-1.9,1-3.8,1.5-5.6,1.5c-3.3,0-6-0.9-8.1-2.7c-2.1-1.8-3-4-3-6.6
				c0-3.4,1.1-6,3.3-7.7c2.3-1.7,5.3-2.5,9.1-2.5c3,0,5.8,0.8,8.5,2.5v-4.8c0-2.4-0.8-4.3-2.6-5.5c-1.8-1.4-3.6-2-5.8-2
				C248.6,27.7,246.1,28.4,244.3,29.6z M260.2,46.3v-3c-2.6-1.6-5.6-2.4-8.9-2.4c-2.6,0-4.7,0.6-6.1,1.9c-1.5,1.2-2.2,2.9-2.2,5
				c0,1.4,0.7,2.6,2.1,3.9c1.5,1.2,3.1,1.8,5.2,1.8c2.2,0,4.1-0.6,5.8-1.8C257.8,50.5,259.3,48.7,260.2,46.3z"/>
			<path class="st1" d="M296.5,8v46.3c0,0.9-0.4,1.5-1.4,1.5h-1c-0.8,0-1.4-0.5-1.4-1.5v-2.8c-2.6,3.8-6,5.6-10.4,5.6
				c-4.4,0-7.9-1.6-10.8-4.7c-2.9-3.1-4.4-7-4.4-11.6s1.5-8.4,4.3-11.6c2.8-3.1,6.5-4.7,10.8-4.7c4.3,0,7.8,1.8,10.4,5.3V8.1
				c0-0.9,0.4-1.5,1.4-1.5h1C296,6.4,296.5,6.9,296.5,8z M282.4,27.9c-3.3,0-6,1.2-8.2,3.7c-2.1,2.5-3.1,5.5-3.1,9.2
				c0,3.5,1,6.6,3.1,9c2.1,2.5,4.9,3.6,8.2,3.6c1,0,2.2-0.2,3.3-0.6c1.1-0.4,2.3-1,3.4-1.9c1.1-0.8,2.1-2.2,2.8-4
				c0.7-1.8,1.1-3.9,1.1-6.3c0-4.2-1.1-7.4-3.5-9.6C287.3,29,284.9,27.9,282.4,27.9z"/>
			<path class="st1" d="M329.5,42.3h-24.9c0.4,3.3,1.6,6,3.5,8.1c2,2.1,4.6,3,7.7,3c2.1,0,4.1-0.4,5.9-1.4c1.9-0.8,3.3-2,4.4-3.3
				c0.2-0.3,0.5-0.4,0.9-0.4s0.7,0.2,1,0.5l0.6,0.7c0.2,0.2,0.3,0.5,0.3,0.8c0,0.4-0.2,0.7-0.5,1.1c-1.4,1.6-3.1,2.9-5.4,4
				c-2.3,1.1-4.7,1.6-7.3,1.6c-4.4,0-8-1.6-10.7-4.7c-2.8-3.1-4.2-7-4.2-11.7s1.4-8.5,4.2-11.7c2.8-3.1,6.4-4.7,10.7-4.7
				s8,1.6,10.7,4.7c2.8,3.1,4.2,7.1,4.2,11.7C330.8,41.8,330.4,42.3,329.5,42.3z M323.7,31c-2-2.1-4.5-3.1-7.8-3.1
				c-3.2,0-5.8,1-7.8,3.1c-2,2.1-3.1,4.8-3.5,8.2h22.6C326.8,35.9,325.6,33.1,323.7,31z"/>
		</g>
	</g>
</g>
</svg>
