<?xml version="1.0" encoding="utf-8"?>
<!-- Generator: Adobe Illustrator 24.0.1, SVG Export Plug-In . SVG Version: 6.00 Build 0)  -->
<svg version="1.1" id="Layer_1" xmlns="http://www.w3.org/2000/svg" xmlns:xlink="http://www.w3.org/1999/xlink" x="0px" y="0px"
	 viewBox="0 0 62.5 63" style="enable-background:new 0 0 62.5 63;" xml:space="preserve">
<style type="text/css">
	.st0{clip-path:url(#SVGID_2_);fill:#FFFFFF;}
	.st1{clip-path:url(#SVGID_4_);fill:#010101;}
	.st2{clip-path:url(#SVGID_6_);fill:#010101;}
	.st3{clip-path:url(#SVGID_8_);fill:#FFEC00;}
	.st4{clip-path:url(#SVGID_10_);fill:#010101;}
	.st5{clip-path:url(#SVGID_12_);fill:#010101;}
	.st6{clip-path:url(#SVGID_14_);fill:#010101;}
</style>
<g>
	<g>
		<defs>
			<rect id="SVGID_1_" x="0" y="0.3" width="62.5" height="62.5"/>
		</defs>
		<clipPath id="SVGID_2_">
			<use xlink:href="#SVGID_1_"  style="overflow:visible;"/>
		</clipPath>
		<path class="st0" d="M62.5,31.5c0,17.3-14,31.2-31.2,31.2S0,48.8,0,31.5S14,0.3,31.2,0.3S62.5,14.2,62.5,31.5"/>
	</g>
	<g>
		<defs>
			<rect id="SVGID_3_" x="0" y="0.3" width="62.5" height="62.5"/>
		</defs>
		<clipPath id="SVGID_4_">
			<use xlink:href="#SVGID_3_"  style="overflow:visible;"/>
		</clipPath>
		<path class="st1" d="M60.3,19.9c0.1,2.1,0.4,8.4,0,9.5c-0.5,1.3-1.2,0.4-1.2,0.4c-1.3-15.7-3.6-18.2-7.1-18
			c-3.6,0.2-1.4,7.4-0.2,10c1.2,2.6,4.8,10.4,6.5,14c1.2,2.5,1.9,5.3,2.3,6.7c1.3-3.4,1.9-7,1.9-10.9C62.5,27.4,61.7,23.5,60.3,19.9
			"/>
	</g>
	<g>
		<defs>
			<rect id="SVGID_5_" x="0" y="0.3" width="62.5" height="62.5"/>
		</defs>
		<clipPath id="SVGID_6_">
			<use xlink:href="#SVGID_5_"  style="overflow:visible;"/>
		</clipPath>
		<path class="st2" d="M47.6,32.1c-3.1-7-5.2-14.9-1.6-19.5c3.1-3.9,7.3-2.5,8.5-2c-5.7-6.3-14-10.3-23.2-10.3
			c-7.4,0-14.2,2.6-19.6,6.9c-0.3,0.9-1.1,1.7-2.1,1.9c-0.6,0.6-1.2,1.2-1.7,1.8l5.2,0v45.9c0.5,0.3,1,0.7,1.5,1V13.5h7.4v5.7
			c0,0,2.1-7.4,6.8-5.9c4.8,1.5,5.8,14.3-0.1,14.4c-1.3,0-4.7-1.4-2.8-8.6c0.6-2.2,2.9-4,1-4.6c-1.9-0.6-4.5,5.2-4.7,9.1
			c-0.1,1.8,0,34.5,0,34.5h2.1c0,0,0.6,0.2,0.5,0.6c0,0.4-0.5,0.5-0.5,0.5h-7.5c4.3,2.3,9.3,3.6,14.5,3.6c6.5,0,12.6-2,17.6-5.4
			c-0.7-0.7-1.2-1.8-1.5-1.6c-0.3,0.2-2.2,2.6-2.6,3.1c-0.5,0.5-1,0.3-1,0.3H32c0,0-0.5-0.1-0.5-0.5c0-0.4,0.5-0.6,0.5-0.6h1.8V12.2
			l-1.8,0c0,0-0.5,0.1-0.6-0.4c-0.1-0.5,0.4-0.6,0.4-0.6h9.8L41.8,58h1.8V37.4c0.3-0.8,1.1-0.4,1.1,0.1c-0.1,0.4,0.5,6,1,8.4
			c0.5,2.5,1.4,6.1,2.7,8.4c0.7,1.2,1.2,1.9,1.6,2.3c1.6-1.2,3.2-2.6,4.5-4.2C55,46.4,50.5,38.6,47.6,32.1"/>
	</g>
	<g>
		<defs>
			<rect id="SVGID_7_" x="0" y="0.3" width="62.5" height="62.5"/>
		</defs>
		<clipPath id="SVGID_8_">
			<use xlink:href="#SVGID_7_"  style="overflow:visible;"/>
		</clipPath>
		<path class="st3" d="M37.2,9.3c-1.7,0-3-1.3-3-3s1.3-3,3-3c1.7,0,3,1.3,3,3C40.2,8,38.8,9.3,37.2,9.3"/>
	</g>
	<g>
		<defs>
			<rect id="SVGID_9_" x="0" y="0.3" width="62.5" height="62.5"/>
		</defs>
		<clipPath id="SVGID_10_">
			<use xlink:href="#SVGID_9_"  style="overflow:visible;"/>
		</clipPath>
		<path class="st4" d="M0,31.5c0,6.1,1.8,11.8,4.8,16.7V14.8C1.8,19.7,0,25.4,0,31.5"/>
	</g>
	<g>
		<defs>
			<rect id="SVGID_11_" x="0" y="0.3" width="62.5" height="62.5"/>
		</defs>
		<clipPath id="SVGID_12_">
			<use xlink:href="#SVGID_11_"  style="overflow:visible;"/>
		</clipPath>
		<path class="st5" d="M11.9,6.1c0-1.7-1.3-3-3-3s-3,1.3-3,3c0,1.7,1.3,3,3,3c0.2,0,0.5,0,0.7-0.1c0.7-0.7,1.4-1.3,2.1-1.9
			C11.8,6.8,11.9,6.5,11.9,6.1"/>
	</g>
	<g>
		<defs>
			<rect id="SVGID_13_" x="0" y="0.3" width="62.5" height="62.5"/>
		</defs>
		<clipPath id="SVGID_14_">
			<use xlink:href="#SVGID_13_"  style="overflow:visible;"/>
		</clipPath>
		<path class="st6" d="M11.7,7.2c-0.7,0.6-1.5,1.2-2.1,1.9C10.5,8.8,11.3,8.1,11.7,7.2"/>
	</g>
</g>
</svg>
